<?xml version="1.0" encoding="UTF-8"?><svg id="logo_Image" width="300" height="300" xmlns="http://www.w3.org/2000/svg" viewBox="0 0 2352.68 2189.9"><defs><style>.cls-1{fill:#7d530b;}.cls-2{fill:#31333b;}.cls-3{fill:#bbd9f1;}.cls-4{fill:#242424;}.cls-5{fill:#fcf310;}.cls-6{fill:#040303;}.cls-7{fill:#fefefe;}.cls-8{fill:#85b9bf;}</style></defs><path class="cls-8" d="M1450.13,379.99c2.55-6.06,17.68-2.01,23.39.03,10.24,3.66,28.75,13.93,17.71,25.34,18.17-.03,36.4-1.22,54.67-3.58,16.49,4.54,31.26,5.8,48.73,2.57,33.04-7.64,65.44-9.18,97.2-4.59,21.28-10.11,39.86-18.3,64.21-19.12,5.92-1.61,21.23-7.99,25.86-11.21,11.91-8.28,39.6-85.39,44.31-99.69,10.21-31,11.6-56.75,7.83-88.74,4.02-13.22,1.28-18.5-7.03-28.93.75-9.41-4.21-13.72-14.89-12.93-9.43-8.87-21.07-13.91-34.93-15.12-30.97-14.59-62.69-25.82-95.16-33.7-.04-7.94-4.64-11.02-13.81-9.25-24.71,5.12-48.75,1.93-74.05-2.27-89.93-14.07-181.58-24-272.96-26.32-44.44-1.13-88.61,1.13-132.35,5.31l-56.03-5.51c-11.67,8.7-76.9,18.34-85.47,11.29-2.45-2.02-3.52-11.04-1.41-13.57,1.06-1.27,28.34-7.98,31.76-8.44,21.07-2.88,42.07-5.35,63.32-5.76,34.01-13.55,75.64-15.42,111.03-7.83,66.28-9.41,133.11-7.74,199.21,1.51,61.02-5.46,117.38-2.78,176.09,17.19l23.86,4.8c71.56,1.93,140.22,15.76,205.84,46.42,20.19,5.13,36.93,12.95,54.21,23.38l47.64,6.52c5.36,3.09,10.68,6.16,15.97,9.22,34.24,4.95,141.66,33.31,160.7,60.23,2.6,3.67,4.1,6.23,3.89,10.91,8.62,1.17,11.54,6.04,14.54,13.5,6.5,3.74,19.78,13.13,16.11,21.81-1.28,3.03-8.01,13.54-10.69,15.09-7.94,4.61-27.81-3.87-30.76-13.19-17.81-12.28-34.75-25.71-50.83-40.29-5.77-5.51-30.85,6.64-31.2,10.02-.14,1.39,1.37,22.65,1.85,24.47,5.51,4.89,7.64,9.76,2.6,16.13,8.92,8.42,15.78,50.88-4.98,38.67-1.2-.71-14.4-23.4-6.53-24.1-10.87-2.45-21.12-10.97-15.13-22.49-7.69-6.45-6.36-20.34,5.52-21.13l-2.91-3.24c-20.68-5.83-24.47-17.92-15.27-35.53-12.17-.13-21.66-4.05-28.47-11.75l-50.8-10.67c-17.83-14.53-43.42-13.9-64.39-6.99-1.73,5.32-4.87,9.07-9.42,11.26-2.01,23.39-1.62,46.7-.46,70.3-7.76,32.07-18.39,63.46-31.89,94.19-.6,10.8-4.15,18.55-10.67,23.25,3.85,10.39,6.35,21.1,7.49,32.13-7.03,6.78-13.3,14.18-18.82,22.2,8.25,5.74,10.61,14.52,7.08,26.35,1.86,16.05,25.07,56.87,45.67,55.95,29.11,4.9,56.32,13.99,81.62,27.26l11.9-.43c41.54,21.46,100.22-15.84,108.07-59.17l2.91-.83c18.23,7.25,32.72,8.24,39.21-13.25,24.57,3.59,49.33,9.31,73.48,17.94,19.6,4.64,39.91,9.27,55.35-6.8l4.45,1.18,18,10,1.32,2.45c-8.69,11.81-5.49,17.96,6.58,24.98,12.12,22.1,25.14,46.11,34.25,69.61,2.52,6.51,16.67,51.93,15.5,54.61-.68,1.57-2.24,2.51-3.65,3.35,1.55.19,3.87.65,4,1.77.79,6.74.77,25.58,0,32.4l-4,2.84c-4.9,7.12-11.69,4.73-20.38-7.19-18.42-2.72-31.83-11.94-46.42-22.72-13.4-7.18-39.94-12.37-41.77,9.06,19.36,8.3,37.21,18.89,53.57,31.77,8.42.05,13.17,3.15,14.25,9.29,19.67,10.72-17.04,19.77-19.37,3.57-12.23-12.43-20.95-4.83-30.65,3.82-1.72,1.53-4.68,1.94-6.95,2.14-1.55,9.53-9.05,14.73-16.79,19.41-42.55,18-68.49,62.73-82.4,104.42-10.39,10.05-17.24,28.25-20.83,42.61-11.66,5.87-15.86,18.03-12.6,36.47l-7.39,15.92c1.22,8.47-.99,14-6.65,16.6-1.02,30.29-30.76,48.23-55.13,26.53-14.78,4.29-29.81,7.01-45.08,8.14-10.41-3.96-19.13-3.82-26.17.42-11.13-7.67-16.63-5.83-26.16,1.88-6.73-3.38-13.78-4.26-21.17-2.63-3.34-4.4-6.99-5.62-10.96-3.65-19.05-2.66-38.56-5.37-57.67-6.23-10.06,15.2-26.36-1.91-13.89-11.94-1.75-11.45,2.61-21.98,13.09-31.61,35.87-31.89,55.75-69.56,72.49-114.43l5-6.41c-2.15-10.06.35-20.37,7.5-30.91,3.31-38.86,10.78-76.41,22.41-112.67-9.72-14.35-8.89-26.09,2.5-35.21-25.78,1.76-46.6-5.51-62.47-21.82l-32.12-41.37c-23.4-34.56-61.18-31.48-85.89-2.25-5.89-1.71-9.95-.35-12.18,4.08-5.75,3.87-31.35,21.52-33.62,25.48-.62,1.08-3.91,11.25-3.38,11.02l47.55-30.4c24.13-28.46,45.79-12.99,58.31,14.61,11.26,1.75,33.63,42.16,32.22,48.89-1.7,8.08-36.37,17.47-45.28,18.47-3.08,9.04-6.58,16.6-15.41,21.34-23.81,12.13-42.92,29.69-59.65,50.27-10.36,12.76-15.22,19.23-16.58,35.84-11.38,17.56-19.13,34.37-23.92,54.96-3.79,11.15-10.59,20.59-22.3,23.7-17.05,3.46-36,8.01-21.65,28.12,5.93-2.41,10.79.24,9.71,6.84-18.6,27.19-37.01,54.41-55.23,81.67-13.73,6.53-29,9.67-45.8,9.42-10.64,4.46-16.7,3.57-18.19-2.65,14.19-83.49-101.95-80.04-152.06-49.11l-6.43-1.59c-37.72,4.27-75.75,5.86-114.07,4.76l-3.93-2.76c-2.79,4.23-8.4,2.96-16.81-3.82-37.06,2.68-74.74,5.3-113.04,7.87-6.66,4.15-11.34,5.29-16.41-1.86-33.36,3.86-69.75,3.69-103.95,1.86l-12.6-4.27c-2.43,6.96-13.97,7.89-20.61,7.64-85.28-6.59-170.91-6.72-256.65-3.05-42.33.4-84.43-1.6-126.29-6l-9.64-4.36c-3.8,2.21-6.21,2.3-10,0l-4.01,3.83c-27.86-3.3-56.08-2.53-84.67,2.3l-48.02-2.03c-5.13,4.65-11,3.97-17.6-2.03-47.31-2.58-94.71-3.99-142.21-4.23-32.84-8.65-65.61-14.11-98.31-16.39-7.19,4.33-12.92,5.18-17.19,2.55-4.8,3.77-13.22-5.03-10-10-4.25-10.69-7.44-21.86-9.58-33.51,11.03-9.43,14.19-16.53,19.84-29.23l5.5-1.49c39.5,9.98,91.65,7.84,129.11-8.74l6.23.25c3.61-6.69,9.94-8.84,18.99-6.46,11.02-10.64,22.79-20.15,35.33-28.53,3.13-11.2,7.2-22.07,12.23-32.62,2.34-1.43,3.42-5.57,3.24-12.41,10.84-4.92,14.29-42.3,11.78-51.31-8.28-29.71-82.62-91.9-118.59-80.41-17.28-6.51,19.04-31.54,25.92-36.11,88.15-58.64,179.94-89.4,281.95-113.17,14.56-.49,28.92-1.95,43.08-4.39,10.73-14.35,23.91-20.3,39.53-17.84,8.18-1.88,44.1-8.68,48.83-.56,2.86,4.9.32,8.53-4.17,11.12-49.08,21.44-94.51,47.82-136.28,79.13-13.68,2.23-22.08,9.28-25.22,21.17-9.04,3.47-12.21,4.71-19.25,10.94-33.55,29.73-56.5,75.99-75.74,116.13-17.87,23.6-36.2,59.05,12.51,31.6-1.8-4.5-1.02-7.92.41-12.3,9.84-30.16,61.45-76.5,85.04-94.32,23.18-17.51,49.97-36.97,73.96-53.2,6.12-4.14,23.85-11.83,31.19-14.26l4.16,2.55,2-4c-5.23,1.01-5.37.11-2-4,.85-.86.18-.86-2,0l-4.56,5.97c-39.84,19.5-78.2,41.08-115.11,64.73-7.38,9.38-28.45,35.09-40.56,36.35-3.62.37-7.38-2.77-7.01-6.22.24-2.19,19.23-33.6,22.3-37.95,2.45-3.47,12.04-12.34,15.49-13.9.14-12.16,7.15-21.27,21.04-27.33.69-4.52,2.41-7.35,6.98-8.87,14.5-2.41,23.86-8.98,28.07-19.69,33.09-25.99,73.27-48.54,111.83-65.99,15.09-6.83,26.31-9.4,42.31-11.23,9.35-10.32,17.09-12.67,30.8-12.44.22-6.82,4.73-13.34,8.42-5.41,7.05-2.07,15.05-2.74,24-2,1.91-5.4,10.07-5.43,12,0,1.33-3.08,4.85-4.58,8-4,.04-5.45,8.16-7.81,10-2l20-4c.67-1.74,1.33-1.74,2,0,40.04-5.72,80.56-8.71,121.56-8.99,55.44-13.44,111.16-16.18,167.45-9.6l.98,2.59c3.47-.97,5.1,1.25,4.9,6.65,18.59-.69,37.36,1.13,56.3,5.48,3.14.11,23.03-.7,24.12-1.24.34-.17,1.63-7,1.47-7.34l-19.18-3.12-1.62-4.43c5.42-5.55,29.64-8.02,28,2,2.92.75,4.9,1.33,6.33,4.04l67.34,2.38,6.33,3.59c3.71,2.31,3.05,7.54-1.97,15.69,4.09,5.03,30.25-4.25,35.95-6.49,24.21-2.21,48.45-4.17,72.72-5.88l5.3,2.69,16.56-.1c9.94,2.61,18.41,1.98,25.44-1.9Z"/><path class="cls-6" d="M2252.13,469.99c5.23-5.2,14.74-7.03,14.02-15.99h1.95c4.18,9.17,15.22,14.57,22.02,22.99,14.45,17.88,21.57,38.73,32.4,57.66s14.71,24.62,20.63,47.31c7.54,28.93,10.93,54.9,8.99,85.04-2.31,35.81-12.82,73.43-21.54,108.46-3.42,13.76-7.29,22.99-10.98,37.02-5.3,20.13-15.7,36.4-27.46,52.01-3.49,4.64-8.91,5.78-10.02,14.56-.55,4.37.63,2.26,2.8,3.11,6.22,2.44,13.46,3.46,18.51,8.49,11.02,10.98,26.5,37.37,33.47,51.53,8.87,18.04,2.93,20,1.32,34.91-2.15,19.83-3,53.68-9.95,72.05-3.27,8.63-13.58,23.09-17.63,32.37-3.67,8.4-4.42,15.61-9.84,26.25-18.37,36.06-34.9,72.9-50.29,111.62-3.5,8.81-10.98,18.92-13.43,26.55s-.05,16.59-1.29,20.56c-8.34,26.75-19.95,54.65-37.4,76.77-6.87,8.72-12.85,25.02-17.36,34.64-4.8,10.26-37.23,41.3-47.94,50.06-3.25,2.66-9.74,3.69-12.4,6.59-1.94,2.12-2.18,7.1-4.47,8.45-1.11.66-15.74,4-23.65,8.34-5.13,2.82-9.67,4-12.47,5.62-2.03,1.17-3.03,6.56-5.1,7.02s-4.8-3.66-7.97-4c-2.89-.31-6.14,2.06-9.45,1.54-26.01-4.11-49.55-19.42-78.8-19.47-5.11,0-8.24,5.15-13.35,4.06-1.67-.36-2.48-5.97-7.27-7.38-4.14-1.22-7.34,1.53-10.62.87s-5.62-5.32-12.49-5.76c-5.24-.34-9.44,2.08-14,2.07-11.96-.03-28.97-3.97-39.92-1.89-7.09,1.35-10.25,12.69-19.89,11.93-1.13-.09-12.17-4.01-12.68-4.46-1.83-1.6-1.07-5.43-3-7.02-1.31-1.08-4.76-.28-6.46-2.55-2.95-3.93,1.96-9.62-11-3.96l-.27-9.75c-17.15-.67-21.75-19.35-25.27-33.73-10.84-44.2-.38-96.96,12.5-140.55,4.18-14.14,14-27.94,16.87-41.13,5.62-25.84-1.24-50.93.07-75.93,1.68-32.07,12.82-61.9,21.66-92.34l32.45-51.62c1.25-3.58-4.87-4.67-7.26-4.85-19.09-1.46-40.83,7.15-57.79,6.09-5.52-.34-10.24-6.44-16.9-4.12.63,3.95-2.58,9.16-1.77,12.54,2.02,8.36,11.2,1.43,2.7,21.4-3.48,8.17-14.6,26.63-4.88,33.21-6.32,11.89-1.87,23.45-3.04,34.87-2.22,21.8-17.5,64.56-13.04,84.52.34,1.52,5.89,1.69,6.05,10.43.11,5.87-4.3,23.34-7.95,27.6-1.99,2.32-7.33,1.47-7.95,4.48-.39,1.88,2.38,5.38,1.49,9.37s-7.84,9.28-8.93,15.45,2.05,14.73-.81,22.53c-1.06,2.9-6.24,2.47-7.58,6.89s.41,10.59-.51,15.48c-5,26.47-23.27,51.63-34.23,75.77-5,11.03-1.62,9.6-9.58,20.33-11.23,15.14-12.54,27.65-28.17,39.91-3.53,2.77-9.56,5.5-13.85,7.16l7.97,2.96-11.75,5.36-.24,5.65c-4.29,1.48-7.68-3.93-10.67-3.68-2.64.22-10.73,6.9-15.36,8.64-6.79,2.56-17.02,3.21-22.61,5.46-2.81,1.13-2.47,4.52-6.12,5.96-12.72,4.99-75.7,13.97-92.25,15.6-18,1.77-64.33-.04-81.51-4.46-4.16-1.07-12.79-8.21-17.63-10.36-21.75-9.69-58.4-21-71.5-42.5-3.91-6.41-3.12-12.46-5.45-16.63-17.16-30.78-16.42-39.13-25.76-72.15-6.98-24.67-20.89-48.17-17.13-75.87-4.83-5.44-19.97,28.91-21.07,31.91-3.94,10.71-3.37,8.78-7.99,18-2.74,5.46-3.62,19.06-5.39,21.6-2.88,4.13-15.02,1.31-14.65,10.61-15.58,1.8-30.55-3.09-45.8-4.22-14.1-1.05-31.65.35-45.98-2.02-28.24-4.66-36.41.95-62.03,3.15-8.9.77-21.27-3.42-30.05-3.23-22.12.48-54.49,6.84-75.64-5.7-1.98-1.18-3.36-5.92-6.29-8.2-3.89-3.02-8.6-3.29-12.11-5.91-18.52-13.83-11.31-19.47-15.52-38.48-6.96-31.39-18.21-58.37-24.29-89.68-1.04-5.34-6.16-10.7-6.8-17.48-.65-6.87,3.98-8.21,3.63-14.37-8.86-4.69-14.72,1.31-22.98,1.99-70.2,5.78-141.66.32-212.02,5.58-2.35.18-5.21-1.69-7.89-1.51-6.06.41-12.67,6.9-13.03,13.01-.36,6.02,3.14,28.1,4.39,35.43,6.88,40.32,16.57,62.23,13.51,106.44-1.57,22.78-20.46,91.43-36.58,106.41-7.72,7.17-70.37,40.73-82.02,44.99-20.1,7.37-40.86,12.96-60.8,21.2-5.2,2.15-11.23,10.25-12,10.45-3.99,1.01-9.97-.71-15.12.44-28.61,6.39-58.01,20.62-88.44,23.54-23.88,2.3-45.97-8.92-66.49-11.64-3.02-.4-7.65,2.18-8.44,1.61-.4-.29-1.66-5.99-4.08-9-4.24-5.27-12.05-8.96-14.9-13.1-3.92-5.68-14.73-23.91-17.96-30.04-17.85-33.85-12.64-70.65-29.22-104.97l4.23-5.73c-2.49-15.87-8.3-31.07-11.61-46.7-1.76-8.32-.97-22.57-2.93-29.06-1.77-5.89-9.13-4.78-1.73-16.38-9.98-29.81-9.24-62.42-7.51-93.62l9.6-7.36c-7.97-2.69-16.79-1.84-24.8-4.21-5.32-1.57-9.19-5.66-15.06-6.94-7.99-1.73-27.71-2.21-34.17-7.83-3.23-2.81-.96-8.24-2.89-11.11-2.1-3.13-22.16-14.42-26.1-17.9-14.89-13.18-16.67-39.13-20.82-57.19-7.92-1.57-14.62,1.49-23.09,1.14-8.47-.35-41.11-5.15-47.61-8.44-2.4-1.22-33.34-22.65-34.76-24.24-10.76-12.06-17.98-27.92-18.77-44.23-.92-19.07,10.26-62.47,20.49-79.68,2.01-3.38,6.36-3.94,7.28-6.78.82-2.54-.49-6.97.63-8.33,1.19-1.45,27.15-13.94,32.73-18.24,2.29-1.77,3.3-6.25,4.84-7.11,1.91-1.08,5.96,1.7,8.73,1.2,1.71-.31,2.28-5.01,5.8-6.69,4.51-2.15,23.74-4.97,25.41-10.76.43-7.19-4.47-10.75-9.96-13.81l11.83-29.43c-4.74-12.69-25.55-31.99-28.65-43.65-2.62-9.85,7.33-21.9-5.02-26.8,3.99-3.44,8.31-4.74,9.65-10.47,1.62-6.9-4.9-4.56-5.66-7.62-.23-.91,5.21-15.44,6.17-17.7,12.68-29.76,41.54-53.03,65.87-72.13,5.37-4.22,11.65-15.03,14.76-17.24,1.34-.95,24.9-8.98,30.6-11.4,4.08-1.73,13.01-2.57,15.28-4.26s.55-6.21,4.59-7.85c4.27-1.73,10.78-.92,16.48-3.54,1.76-.81,29.27-20.87,31.25-22.74,3.06-2.87,4.74-9.46,5.24-9.76,1.89-1.13,7.4.32,11.64-1.37,5.95-2.36,16.55-15.43,18.45-16.52,2.57-1.47,8.28.29,12.21-.81,3.67-1.03,8.8-9.2,13.99-12.01,12.75-6.92,36.23-13,50.82-19.18,22.13-9.37,45.3-22.57,68.56-29.44,14.14-4.18,29.22-3.43,43.52-10.39,2.66-1.29,2.73-5.07,6.17-5.55,5.08-.71,10.65,2.75,16.44,2.08,14.02-1.64,37.11-15.64,51.34-18.67,5.48-1.17,11.28.48,16.7-1.3,5.07-1.67,16.1-16.9,22-20,10.57-5.54,18.62.62,25.25-14.75,7.42-17.19,11.6-39.13,15.05-56.94,2.47-12.72,7.1-11.48,14.62-17.38,2.96-2.32,22.49-17.2,24.24-17.77,9.87-3.21,24.59-4.71,34.85-7.15,12.1-2.88,14.02-7.46,30.36-4.68,2.58.44,28.99,14.12,30.15,15.35,3.29,3.48,7.73,26.35,17.32,21.17,1.12-.61,18.14-16.1,18.88-17.14,14.95-20.68,32.05-42.15,50.1-61.89,5.63-6.16,16.12-11.72,19.95-18.05,8.15-13.47,25.41-44.71,36.04-55.96,4.37-4.62,10.32-6.34,12.43-8.59,18.43-19.65,32.03-43.81,52.52-62.51,2.62-2.39,7.08-2.42,8.27-4.14.47-.68,5.58-14.8,5.62-15.63.1-2.66-2.85-6.48-1.56-8.78.61-1.09,16.79-16.58,17.89-17.19,5.42-2.99,33.97-10.95,41.43-12.57,42.67-9.27,88.29-13.64,131.74-19.87,49.64-7.11,97.82,1.53,145.18-5.21,7.09-1.01,15.65-5.41,22.51-5.46,13.63-.1,34.42,7.86,48.33,7.92,4.26.02,6.68-3.65,8.8-3.11,5,1.29,7.3,9.28,14.93,1.17,2.34,8.01,13.71,2.31,20.84,4.23l.12,5.79c7.64-1.59,17.15-6.04,25.07-5.67,4.36.2,8.02,3.32,12.16,3.62,16.55,1.19,45.04-4.82,59.3-1.47,18.95,4.45,12.29,2.19,30.48,1.94,24.58-.34,64.97,15.06,90.54,21.03,8.13,1.9,17.36,1.46,25,3,3.89.78,7.45,4.69,10.91,5.23,6.36.99,9-5.38,13.17-5.25,2.8.08,6.69,3.14,10.53,3.43,24.78,1.85,38.98,6.03,62.8,11.18,33.31,7.2,58.52,13.58,90.11,25.89,5.34,2.08,13.83,9.41,19.49,10.67,5.25,1.17,8.4-1.83,13.79-.13,11.37,3.58,15.23,17.34,17.89,18.3,5.57,2,11.22-1.58,15.74-1.34,17.92.97,30.76,7.9,46.85,12.74,36.71,11.05,73.46,18.4,110.16,31.84,16.73,6.13,63.5,23.3,74.59,34.88,2.65,2.77,1.91,7.1,4.44,10.08s8.25,3.5,11.05,6.95c3.67,4.52,6.35,13.59,11.93,20.07,6.62,7.68,14.5,7.42,13.84,21.87-.65,14-7.53,13.29-15.71,18.29-9.68,5.92-7.32,5.35-19.26,8.79-1.97.57-3.93-1.1-2.79,2.93,2.73,9.65,10.39,11.27,13.69,16.33s3.89,15.52,7.57,22.25c1.67,3.05,5.28,3.13,6.26,5.85,2.84,7.94,1.29,20.93,2.85,29.22,3.25,17.23,10.57,45.45,15.64,62.36,2.21,7.38,13.53,25.01,13.96,28.2.37,2.77-2.53,18.57-4.07,20.9-1.31,1.98-12.85,10.52-15.56,11.44-26.59,9.06-62.21-8.61-87.95-14.94-9.28-2.28-20.69,0-28.47-6.5-1.92,23.88-24.97,22.49-42.01,14.01,1.45,9.24-5.61,22.53-11.13,29.87-14.08,18.72-46.56,36.27-69.89,38.09-15.36,1.2-18.04-5.26-30.26-7.32-2.39-.4-5.66,1.62-9.21,1.01-9.48-1.64-22.14-13.83-39.01-17.19-9.76-1.94-13.91-2.57-24.55-5.43-14.66-3.93-39.87-7.92-48.38-21.62-3.19-5.14-18.35-35.5-19.76-40.42-2.91-10.14,8.8-19.5-9.78-28,4.09-3.63,5.33-9.07,8.89-13.08,2.91-3.27,11.16-7.89,12.04-9.79,1.63-3.56-6.52-30.96-8.96-36.11,12.8-1.08,8.6-9.14,11.35-17.68,9.43-29.37,25.13-59.65,32.11-89.87,2.24-9.71-1.36-40.01-.72-53.15.48-9.81,6.59-18.38-.74-27.31,11.01,2.21,10.18-8.69,14-11.02,9.81-6,41.24-5.96,52.51-2.51,6.06,1.86,8.54,6.94,13.4,8.6,14.85,5.08,37.84,7.11,52.69,11.31,4.17,1.18,6.63,8.01,10.8,9.2,4.95,1.41,23-1.43,20.3,8.94-1.92,7.38-10.21,9.4-1.32,22.08,4.39,6.27,17.64,3.88,19.67,14.37,1.22,5.67-9.34,3.13-10.18,6.24l.13,10.76c.9,1.03,12.78-7.84,11.95-.99-.18,1.49-10.53,5.07-9.54,11.65,1.8,11.87,18.08,11.04,19.56,14.37,3.36,7.92-8.05,2.59-5.97,7.96,1.11,2.88,9.25,8.42,8.01,15.02,20.56.1-1.48-32.44-1.31-37,.06-1.71,4.1-3.82,3.12-7.6-.59-2.29-4.38-3.71-5.24-6.69-1.72-5.98,2.05-19.12-4.12-25.73,10.1-8.91,25.22-19.09,39.01-13.46,3.05,1.25,25.3,21.45,30.31,25.69,10.3,8.73,10.83,8.04,20.79,14.7,2.7,1.81,3.24,6.54,7.55,8.97,9.31,5.26,27.46,9.63,21.86-6.87h6.01c1.48-13.39-10.25-14.33-15.18-19.82-2.39-2.66-2.66-7.08-4.84-9.16-2.82-2.69-9.12-2.34-11-4.91-.75-1.02.74-4.26.06-6.12-2.09-5.74-11.54-11.88-16.91-15.12-18.28-11.04-57.14-24.87-80.13-33.87-23.55-9.22-48.66-8.56-68.54-15.46-3.95-1.37-5.32-6.1-8.87-7.13-14.37-4.18-39.22-3.77-50.65-7.31-8.64-2.68-18.63-12.84-31.98-16.22-30.4-7.71-58.31-24.63-89.42-32.4-15.23-3.8-30.75-8.02-46.08-11.92-17.69-4.49-45.48-6.1-63.37-6.45-53.69-1.07-99.52-25.93-151.84-27.46-30.02-.88-63.84,6.02-94.13,1.26-32.13-5.05-79.98-8.05-112.1-5.72-21.21,1.53-42.74,1.94-64.45,5.36-12.55,1.98-15.55-3.07-21.43-3.33-21.37-.96-50.07-.03-71.95,3.98-4.92.9-18.11,7.37-22.05,7.61-23.15,1.4-42.26,1.63-66,6.32-8.38,1.65-17.52,7.27-27.14,5.91l1.87,9.07c4.26,2.68,48.44-2.31,56.62-3.63,10.38-1.67,20.42-8.11,24.78-8.99,7.45-1.51,45.5,5.28,57.55,5.34,13.64.07,31.96-3.21,46.15-3.92,38.52-1.92,74.98-3.37,113.6.57,31.04,3.17,63.68,1.23,94.35,5.66,21.94,3.17,26.03,3.2,48.1,3.71,20.55.48,41.4,5.77,61.49,8.69,26.66,3.87,57.53,9.19,84.53,11.45,16.61,1.4,33.06-7.33,48.18-.08l-1.2,8.09c11.67,1.99,22.33,3.29,33.55,7.42,19.95,7.35,42.93,18.56,64.06,25.99,5.22,1.84,12.37,1.08,18.4,3.6s8.25,8.05,12.1,9.9c4.09,1.97,12.9,1.44,15.43,3.56s1.6,8.98,3.01,12.02c2.49,5.39,8.83,9.65,9.45,16.72.42,4.74-2.25,9.05-2.07,13.85,1.21,31.39,5.22,41.75-3.42,74.44-6.03,22.81-17.88,52.69-27.39,74.61-4.03,9.28-11.7,27.69-16.7,35.3-6.77,10.3-8.06,7.2-16.25,11.75-25.05,13.91-31.14,6.2-52.61,13.39-7.37,2.46-22.53,12.77-30.76,13.39-8.43.63-21.57-4.55-33.41-3.72-28.47,1.98-60.62,10.01-90.36,9.98-8.25,0-12.48-3.93-19.96-4.34-12.04-.66-32.06,4.18-46.42,3.96-1.45-.02-24.54.17-18.63-5.77,20.25-2.53,1.46-15.93-7.61-19.43-6.51-2.51-17.19-3.66-24.4-4.6l-3.71,3.55c-12.69-1.53-25.45-2.05-38.29-1.55-23.83,7.39-49.39,1.14-74.52,6.48-14.08,2.99-21.49,10.58-38.47,7.51-11.27-2.04.7-13.72.99-19.99,3.04-6.83,24.71-12.13,29-6,.15-1,.38-1.95.91-2.67.87-1.18,26.46-1.18,28.09,2.67-4.6-2.7-12.06-3.8-22.4-3.3l-1.6-2.7c-34-12.94-70.82-16.63-107.62-17.36-1.28-9.77-4.41-12.68-9.38-8.72-19.8-6.27-24.26-7.43-43.05,2.09-24.23,19.68-42.24,20.07-70.12,8.39-21.89-1.53-43.06-5.63-63.51-12.3-14.2,6.84-21.51,3.73-21.95-9.31-11.41,1.36-23.07.44-35-2.77,20.71,13.88,1.08,25.32-15.23,28.55-7.47,7.91-17.53,11.47-30.21,10.68-3.91,3.39-7.9,5.64-11.94,6.74l-3.3,4.09c-29.3,2.7-58.2,6.01-86.7,9.91-.66.06-1.34-.07-2,0l-20,4c-3.58.34-6.9,1.73-10,2-3.16.23-5.82,1.56-8,4-3.02.32-9.17.47-12,0-28.57-15.61,12.79-32.63,30.15-32.91,36.66-2.29,73.3-3.72,109.91-4.3-.67-5.08-.31-9.88,1.09-14.39,12.9-8.06,29.88-21.71.55-18.81l-54.28.6c-10.32.18-26.29-3.7-21.95-17.27-21.21,21.13-42.59,39.09-70.31,53.64-6.14,6.79-11.86,9.94-17.15,9.44-3.78,5.03-11.47-7.96-11.15-11.21,5.17-8.42,9.29-19.35-.6-24.86l-3.03-8.28c-11.77-2.03-18.68-7.96-24.98-17.72-27.52-7.99-67.64,19.48-58.09,51.12-1.51,5.83-2.1,11.35-1.78,16.56,5.94,7.14,74.39-.8,87.02-4.38,6.18.63,9.42,11.69,10.6,16.75,5.85-.13,5.76,6.78,0,8-.12.17-2.7-.56-3.5.46-1.49,1.91.71,5.96-1.65,7.78-3.42,2.66-13.8,1.05-18.97,2.64-5.62,1.73-8.15,8.23-13.41,10.59-7.1,3.18-15.38,1.59-22.54,3.46-23.57,6.13-108.52,53.55-127.75,70.24-7.08,6.15-4.65,9.85-7.51,13-4.48,4.93-24.68,8.84-28.23,12.39-.82.82.02,3.71-1.76,5.54-5.98,6.11-13.84,5.14-19.7,18-2.14,4.7.42,7.33,1.02,11.89-12.7-2.27-8.24,2.57-11.14,5.76-2.04,2.24-4.95,3.15-6.59,5.51-7.46,10.77-12.87,25.65-22.24,35.77l3,3c4.64-4.35,14.46-9.17,18.37-12.65,6.67-5.93,14.97-18.98,21.82-25.17,14.01-12.67,36.53-21.07,53.46-30.54,21.73-12.15,42.9-27.21,67.32-35.68h2c.36,1.1,2.13,3.33,2,4l-2,4-33.42,14.6c-37.48,32.99-85.5,55.3-119.61,93.37-8.34,9.31-36.13,45.3-38.63,55.56-1.08,4.44,1.99,8.13,1.66,12.46-13.11-1.94-40.44,26.21-39.4-3.42.45-12.66,12.24-23.34,17.09-31.87,14.43-25.32,22.21-50.46,40.29-75.16,6.73-9.19,37.64-47.02,45.25-51.3,3.79-2.13,8.77-1.56,11.74-4.25,3.37-3.05,3.77-11.59,5.55-13.46,2.49-2.62,15.76-5.69,19.32-7.67,9.41-5.24,23.55-18.43,33.46-24.54,32.93-20.32,65.11-35.77,99.31-52.69,21.54-10.65-3.43-10.38-13.71-9.71-7.88.51-16.08,3.05-23.95,4.04-6.04.76-14.44-1.31-19.7.37-2.43.78-13.94,15.54-18.75,17.19-12.11,4.16-34.09,2.6-48.63,5.37-29.71,5.66-57.91,17.76-87,25-67.06,16.7-146.77,53.73-202.72,97.28-2.47,1.92-18.48,16.47-16.16,18.82,4.52-.74,8.04-2.36,12.91-2.11,40.32,2.03,90.61,46.48,109.12,80.68.58,1.07,2.5,1.33,3.62,1.82-3.62,11.2-.16,23.31-1.76,34.51-.37,2.61-2.71,4.47-3.32,6.68-2.14,7.76,1.08,11.23-8.64,15.79-2.43,8.67,5.97,5.63,6.05,12.62-2.82.4-7.43-1-9.67.35-1.5.91-9.78,28.52-12.27,32.74-12.33,5.48-24.7,21.49-35.36,28.78-4.12,2.82-8.81-.92-13.27.41s-4.67,6.84-5.73,7.55-4.72-1.85-7.77-1.01c-2.33.64-4.49,3.68-7.53,4.6-34.12,10.37-78.4,11.66-113.16,8.02-3.64-.38-8.63-6.11-13.38-2.59-2.79,5.56-2.88,11.97-6.94,17.08-2.83,3.56-9.79,5.9-10.7,9.47-1.5,5.88,11.68,23.39,5.78,32.61,3.22,5.57-5,10.58-10,8-11.94,25.33-44.16,17.23-29.86-10.56-5.87-.56-23.75,6.1-27.45,11.63l-4.69-1.07c-35.95,28.4-48.66,100.18,7.99,110.72l6.98,5.26c6-2.08,8.96-1.76,12.16,4.11,12.16-.28,21.9,2.36,29.21,7.9,6.67-8.19,13.91-11.12,21.72-8.8,15.26-14.81,62.74-9.41,36.47,17.04-2.13,11.24-7.21,12.49-17.53,13.76,1.3,3.21.57,4.72-3,6.01,2.53,8.21,6.08,16,10.67,23.38l24.21,23.78c10.67,2.71,14.96,7.69,12.87,14.93,29.01,12.5,62,16.61,93.7,17.8,47.41-1.46,94.3,1.44,140.68,8.7l4.18,3.52,35.03-5.75c39.05-1.03,77.46-3.6,115.23-7.7,12.6,5.57,24.64,7.49,36.12,5.78,10.31-9.93,21.73-8.98,31.28,1.22,76.4.03,152.38,1.54,227.95,4.54,36.24-3.82,72.45-8.22,108.63-13.21,102.26-3.75,205.34-8.94,306.03-22.8,49.17-14.49,98.59-26.22,148.25-35.17,12.91-5.5,25.97-11.11,39.16-16.82,12.23-8.21,23.67-34.82,29.56-48.87,3.45-8.24-.92-6.38-3.98-1.95-4.94,15.72-14.71,26.72-31.04,31.08-26.63,4.86-52.64,10.13-78.64,18.97l-38.43,2.62c-7.34,5.69-13.93,6.24-19.78,1.65-6.69,2.47-11.25,1.9-13.69-1.71-29.59,5.96-59.88,9.71-90,12l-10.07,3.04c-70.15,4.02-140.08,9.95-209.77,17.77-9.85,7.78-22.01,9.08-36.47,3.91-32.07,9.71-72.09,13.21-105.92,7.31-5.88-1.03-14.46-3.98-15.77-10.03-5.02-5.04-2.33-10.7,8.07-16.95,7-19.07,27.59-11.71,40.84-3.31,24.66,8.13,51.27,4.82,76.65,1.51,35.44-6.14,71.33-11.08,107.68-14.8,111.61-7.02,222.81-15.95,333.68-30.62,7.39-.98,16.8-4.61,17.93-12.25,29.64,11.48,39.02-23.51,39.17-46.52l3.98-3.05-4.15-4.32c-.13-6.28-3.9-19.67-8.49-23.64-2.01-1.74-46.8-19.77-49.46-19.72-25.63,2.28-50.88,6.89-75.73,13.85l-8.18-2.17c-5.34,1.48-8.01.81-8-2,1.62-6.88,8.28-9.55,20-8,40.67-16.85,67.99-30.42,114.51-19.51,13.89,3.26,41.03,20,46.41,33.59,3.29,8.29,2.88,30.66,1.09,39.91,15.25-9.41,45.03-2.6,57.88-13.1,5.5-4.5,19.63-30.67,25.23-38.82,5.06-7.35,9.21-12.28,14.82-21.12,3.36-5.29,12.17-15.61,14.03-19.98,2.28-5.34-5.1-1.06-6.75-1.38-4.25-.82-9.62-15.44-8.24-19.47,5.83-17.08,25.04-11.79,37.68-20.45s15-33.35,20.85-47.15c2.93-6.92,12.15-19.05,14.65-25.35s1.21-13.82,4.25-19.75c.57-1.11,13.08-17.4,14.67-19.33,7.52-9.12,22.87-24.52,31.97-32.03,9.9-8.15,26.79-15.03,34.28-22.72,3.9-4,5.28-13.19,7.15-14.85,3.64-3.23,15.07-3.14,19.94-4.87,4.19-1.49,24.67-9.55,25.44-12.81-8.07-12.58-13.84-28.89-24-39.72-1.86-1.98-5.68-1.97-7.35-3.61-6.06-5.93-7.69-19.86-21.76-27.22-16.47-8.61-22.56,5.8-32.83,12.66-17.15,11.46-35.91,21.66-51.83,34.17-1.03.81-8.38,13.96-10.09,5.88-1.1-5.2,5.97-9.05,8.41-13.55,2.07-3.83,2.5-10.82,4.64-13.36,4.27-5.07,27.38-21.04,34.08-25.98,5.16-3.81-.79-8.04,13.61-4.19,4.82-11.52,7.64-8.75,15.08-13.07,2.87-1.67,4.57-4.43,8.14-5.86,22.26-8.93,37.34-6.7,54.99,9.09,14.94,13.36,29.79,37.9,43.05,52.95,7.36,8.36,18.11,17.48,29.58,18.61,8.62.85,10.12.45,19.53,2.3,3.67.72,13.55-1.59,14.87,3.2,1.87,6.76-9.18,12.06-9.78,14.15-1.9,6.58,7.98,15.6,7.78,21.5-.17,5.1-4.56,10.12-5.52,14.69-2.42,11.48-5.54,22.76-7.91,34.09-4.51,21.62-4.54,48.03-9.81,68.19-1.79,6.85-7.76,12.65-8.36,15.72-.78,3.98,2.75,8,1.3,13.09-.66,2.3-4,4.25-5.18,6.96-8.86,20.34-23.19,55.6-34.84,73.17-9.84,14.84-50.41,48.82-51.63,64.42-.46,5.93,5.59,7.86-4.18,12.05,4.97,18.47,11.66,3.3,13.54,2.82,3.02-.77,9.95-.14,13.6.07,15.99.91,30.08,5.8,45.71,5.87,2.45.01,5.72-2.4,8.01-2.07,1.93.28,1.78,5.18,4.51,6.04,3.46,1.09,6.94-1.8,9.88-1.68s5.53,3.84,9.91,4.04,2.52-5.29,7.9-6.27c2.82-.52,11.02-.55,13.74.08,1.83.42.66,5.63,6.36,4.01,1.45-7.17,18.6-.45,26-.07,18.76.95,31.19-8.61,44.04-8.18,3.52.12,2.53,3.72,6.81,5.27,4.97,1.8,19.98,5.87,24.07,3.99.84-.39,12.8-11.08,13.78-12.33,6.13-7.85,4.4-13.9,6.27-21.28.56-2.23,4.81-1.93,5.71-4.67,1.08-3.27-.3-7.73.75-11.32,1.64-5.64,6.74-10.9,7.48-16.62,1.55-11.95-3.7-16.8,4.05-31.36,1.68-3.15,7.16-2.36,9.03-5.47,1.59-2.65.72-7.02,1.98-10.02,3.44-8.22,8.26-15.99,12.08-24,5.69-11.92,2.73-4.29,7.91-9.96,2.89-3.16,1.94-10.79,3.56-14.5,10.05-23.04,30.42-54.05,48.49-71.51,9.74-9.42,37.87-18.55,43.93-30.14,1.25-2.39.57-6.88,1.31-7.62s5.25-.04,7.63-1.3c7.97-4.2,8.02-13.52,22.97-10.88,6.13,1.09,18.34,6.07,15.13,13.93,6.54-.65,15.01,2.33,20-3.02-10.91.66-8.61-7.22-10.29-8.67-1.07-.93-6.42.05-9.61-1.38-6.26-2.82-13.18-10.89-19.45-14.58-5.16-3.04-35.25-16.92-36.34-18.64-4.51-7.17,6.48-20.69,14.88-21.69,3.03-.36,20.13,1.6,23.39,2.4,7.93,1.94,24.21,15.94,32.01,19.99s16.6,4.21,22.93,6.93c4.23,1.82,8.03,14.14,18.47,10.67v-37c0-6.59-11.92-47.76-15.55-56.45-4.09-9.8-29.36-64.03-33.53-68.48-5.03-5.36-10.6-2.93-12.58-15.62-.94-6.03,3.61-10.43,7.65-14.46Z"/><path class="cls-6" d="M548.13,1325.99c8.43,11.82,17.93,22.52,28.5,32.1,10.16,2.39,12.9,5.31,9.85,15.77,26.39,11.82-8.13,25.88-23.12,26.09-7.2,24.15-34.14,21.93-53.62,16.57-4.99,27.26-45.15,40.86-65.35,25.11-6.23-4.86-43.26-76.17-48.03-86.35-1.73-3.7-3.39-7.36-4.81-11.19-4.6-12.45-6.06-21.59,5.02-30.76,6.11-5.06,19.15-12.96,26.83-9.39,12.34,5.74,51.71,87.42,56.17,101.71l17.63.27c-25-14.93-53.38-73.08-27.27-96.32,11.74-10.44,19.22-12.21,26.55,3.73l14.8,35.47c-2.01-8.32.56-15.7,7.74-22.14,1.73-13.93,18.95-12.22,27.09-4.66l2,4Z"/><path class="cls-4" d="M790.13,1949.99c2.2-12.44-9.7-.57-16.08-4.9-2.92-1.98-4.6-11.38-2.95-15.03,1.79-3.96,15.95-13.12,20.41-15.69,102.45-59.07,216.14-98.51,324.64-145.36,42.63-18.41,88.27-44.75,130.92-61.08,7.91-3.03,28.48-5.9,33.13-10.88,2.8-2.99,1.37-2.61-1.11-5.07l-56.54,15.42c-118.81,24.89-229.35,74.97-336.58,129.42-6.71,3.41-14.34,5.15-20.81,9.2-4.66,1.45-3.99-6.57-1.78-8.23l122.75-59.84c1.52-6.01-4.63-4.37-8.51-3.48-20.75,4.73-41.09,17.8-60.93,25.07-6.37,2.33-29.16,6.45-32.1,8.9-1.84,1.54-1.43,6.38-2.77,7.25-1.53.99-5.65-.04-8.12.79-28.06,9.45-49.83,29.23-74.11,44.15-6.46,3.97-15.44,3.41-21.32,6.5-10.48,5.51-31.21,20.65-41.94,28.06-58.76,40.58-122.4,69.95-178.34,119.66-14.17,12.59-37.42,21.52-50.92,35.08-8.11,8.16-2.78,4.79-14.06,11.94-2.98,1.89-9.3,11.86-13.95,16.05-7.42,6.7-20.58,11.31-24.97,15.09-2.39,2.06-1.56,6.27-2.13,6.81-1.62,1.54-8.94-1.9-12.41-1.45-5.61.73-14.9,11.47-21.27,2.47-7.85-11.09,3.91-16.92,9.85-23.84,10.07-11.73,12.07-13.52,26.18-21.9,2.27-1.35,6.01-.53,7.4-1.49,1.73-1.19,1.29-6.38,2.72-7.31,1.61-1.05,7.48.03,11.25-1.74s4.23-5.94,6.57-7.43c2.64-1.69,6.69-1.16,9.28-2.72,31.22-18.85,56.76-46.03,86-64.4,11.58-7.27,18.88-15.02,30.73-22.87,32.39-21.47,69.86-45.97,106.5-67.5,51.77-30.42,105.35-60.29,159.16-86.84,19.88-9.81,39.46-20.01,60.58-27.42,37.3-13.09,74-28.22,111.66-42.34,34.6-12.97,64.41-18.31,99.99-28.01,38.3-10.45,75.35-24.23,114.58-31.42l4.42-7.56c-18.21,6.07-38.32,7-57.13,10.85-20.71,4.24-38.47,10.72-57.32,16.68-6.22,1.97-35.91,4.02-38.56,6.45l5.97,3.96c-9.55-4.19-13.66.5-21.19,1.83-83.36,14.63-155.78,33.22-234.74,63.24-10.03,3.81-14.4,10.21-18,11.98s-8.76.76-13.51,2.52c-4.45,1.65-9.61,8.23-12.66,9.43-98.94,38.89-184.95,95.74-276.95,148.96-7.29,4.21-16.37,18.94-29.15,12.9-5.78-12.41,2.93-17.13,10.21-24.81-8.22-2.33-10.15,5.34-15.5,7.48-7.87,3.14-28.34,9.1-34.45,15.55-2.14,2.25-1.98,6.37-4.06,7.94-2.32,1.75-8.7,1.61-12.49,3.51-16.83,8.43-49.81,28.35-64.22,39.78-5.38,4.27-7.52,13.32-9.81,15.2-5.83,4.78-29.99,15.49-38.16,20.84-11.43,7.49-14.9,18.37-25.94,24.03-3.7,1.9-27.64,11.35-29.36,9.66-.51-8.76-.96-15,5.12-21.88,2.03-2.29,14.67-12.05,17.81-14.19,87.88-59.96,181.01-119.11,273.66-170.34,122.53-67.76,244.57-112.85,377.98-156.02,52.77-17.07,106.33-27.4,160.92-39.08,107.74-23.04,215.53-44.5,325.53-56.47,48.03-5.23,91.18-7.31,136.56,7.37,13.44,4.35,11.76-.63,20.36-2.53,26.5-5.87,56.47-12.46,83.22-16.7,23.05-3.65,23.05,3.08,39.96,5.71,18,2.81,38.44-4.35,54.03,8.08l-3.15,12.02c7.47.81,16.19,3.12,23.56,3.47,13.37.63,21.97.96,35.68,2.3,55.24,5.42,106.21-16.74,161.76-13.58,8.57.49,17.06-5.87,20.44,7.35,4.13,16.1-10.83,8.03-18.36,8.51-12.04.78-12.08.62-24.02.28-16.11-.46-64.06,4.15-79.85,7.9-7.08,1.68-13.76,6.83-22.47,7.64-8.16.76-17.97-1.9-26.74.15-.84,7.26,10.82,3.32,9.61,12.69l-11,11c-3.99.32-7.48-2.05-11.52-1.79-40.81,2.63-73.98,7.96-114.35,13.84l-28.69,4.18-.17-5.72c-3.6-3.46-48.24,10.69-56.21,12.47-23.28,5.21-52.72,7.41-74.12,13.88-20.37,6.16-42.59,19.75-63.15,26.85-15.32,5.29-36.85,7.91-51.52,14.48-4.29,1.92-8.07,7.28-10.12,7.64-2.39.42-5.9-1.66-10.83-.77s-26.23,10.44-33.06,13.11c-74.61,29.18-150.99,73.42-221.49,112.51-50.02,27.74-100.35,61.25-148.07,93.93-15.97,10.93-25.77,20.56-42.39,29.61-7.9,4.3-10.84,11.78-15.95,16.05-14.54,12.14-26.94,14.9-37.31,32.69-2.22,3.81-5.28,14.58-5.91,15.09-1.42,1.15-6.9-.76-9.86,1.14-3.46,2.22-2.16,15.47-17.35,18.63-26.68,5.55-20.73-23.28-12.91-38.89,7.91-15.78,12.37-10.45,25.05-16.95,16.42-8.42,43.47-33.13,60.61-45.39,41.35-29.58,88.55-56.7,129.7-86.3,6.62-4.76,15.45-11.33,13-20.01,4.94-.46,11.57,1.3,16.07-.95,2.63-1.32,2.97-5.54,4.46-6.51,2.01-1.3,6.83-.87,10.28-2.71,19.93-10.62,38.85-26.54,61.18-29.84l-3.99-5.95,8-4c-3.31-.28-6.52.28-9.66,1.33-15.49,5.19-59.58,22.08-72.28,29.75-17.14,10.37-36.07,22.45-53.47,32.49-55.34,31.92-108.79,67.67-161.24,102.76-29.09,19.45-59.26,38.35-87.99,58-16.5,11.29-31.57,24.44-45.42,38.59-2.17,2.21-1.28,6.38-5.25,8.75-3.2,1.91-18.18,7.19-21.41,6.1-12.58-13.39,17.06-29.58,26.81-38.69,5.22-4.88,5.73-7.24,12.42-13,12.64-10.89,27.15-21.57,41.65-30.94,7.79-5.04,24.03-11.27,29.81-16.19,4.04-3.43,3.66-8.1,4.33-8.65,1.37-1.11,5.81.28,8.21-.74,17.88-7.58,32.83-20.83,48.8-31.27,52.04-34,107.15-77.73,163.35-106.65,18.41-9.47,39.64-15.26,58.05-23.95,26.66-12.58,52.39-28.7,79.28-40.72,28.4-12.69,61.12-19.07,85.99-38.01-8.39-6.28-18.77,4.05-27.11,6.89-3.81,1.3-8.44,2.64-12.35,3.65-67.85,17.4-132.46,50.94-194.49,81.51-10.86,5.35-26.46,10.79-35.89,16.11-17.46,9.87-40.33,32.63-59.81,40.19-4.01,1.56-24.05,6.77-26.34,4.65.05-11.55,9.85-18.79,18.13-24.85,55.82-40.93,130.7-62.53,191.92-94.3,5.22-2.4,12.71,6.56,17.72,2.91.74-.54.9-5,3.71-7.83,8.85-8.9,84.46-37.97,101.44-43.98,29-10.26,59.24-17.39,88.25-27.75,8.36-2.72,4.98-8.56-1.86-7.64-2.57.34-5.09,2.93-8.42,3.37-89.19,11.84-212.27,60.05-289.5,104.48-48.54,27.93-96.98,50.69-145.11,80.89-57.18,35.88-115.88,69.44-172.09,107.91-50.79,34.76-98.01,74.41-146.24,111.76-12.36,9.57-21.38,15.01-31.94,27.97-2.87,3.51-10.79,19.98-15.26,20.83-5.82-3.44-14.34-3-19.55-5.94-.8-.45-12.98-11.93-13.18-12.83-1.09-4.86,6.55-4.16,7.57-5.39,1.1-1.32.1-5.6,2.26-8.72,1.36-1.97,26.87-20.15,31.1-22.93,46.47-30.55,90.88-62.67,135-97,23.24-18.08,52.99-37.96,78.06-54.94,1.36-3.43,4.93-5.64,10.72-6.65,9.65-13.04,4.6.54-4.65,1.82-.62.09-1.33-.45-2.07-1.17Z"/><path class="cls-4" d="M1304.13,1941.99c7.99,10.55,15.49-4.16,22.54-8.55,11.72-7.29,31.52-14.23,41.34-20.56,2.94-1.89,4.04-7.86,8.18-9.82,48.97-23.19,94.2-59.02,145.93-78.07,23.93-8.81,66.13-21.11,87.48-34.34,2.93-1.82,3.51-5.62,5.78-6.33,4.73-1.49,10.92.53,16.84-1.22s17.61-7.29,25.9-10.1c29.11-9.86,57.2-20.78,87.16-28.84,130.51-35.09,259.2-71.91,393.55-90.85,14.18-2,26.14-7.08,41.4-2.41,10.63,3.25,20.6,15.69,5.99,20.19-11.58,3.57-23.03-3.14-34.78-2.94-14.72.26-32.28,7.14-46.78,9.38-20.7,3.2-46.74,3.4-67.09,8.91-4.97,1.35-8.2,6.1-12.85,7.15-28.25,6.4-61.51,7.95-89.46,14.54-29.42,6.93-58.1,19.1-89.66,26.34-73.77,16.94-147.72,44.57-218.99,71.01-69.79,25.89-147.23,57.36-207.53,100.56-22.53,16.14-44.94,27.97-69.55,42.36-56.43,32.98-111.64,71.49-162.45,113.55-40.35,33.4-74.46,63.36-108.07,101.93-2.34,2.69-3.2,8.15-4.79,9.21-2.24,1.48-22.07,2.92-26.19,5.81-2.83,1.99-.9,9.68-5.09,11.02-12.66-1.44-18.01-12.56-11.64-23.77,3.45-6.07,9.81-13.16,13.38-18.64,1.24-1.91.88-6.6,1.71-7.26,1.05-.84,6.42.2,9.72-1.26,1.58-.7,23.26-18.04,27.03-20.99,16.92-13.21,31.53-28.6,48-42,10.4-8.47,15.35-14.6,23.95-24.05,7.54-8.28,23.58-13.78,32.89-21.11,14.55-11.46,17.56-16.18,34.77-27.23,6.86-4.4,32.05-18.59,35.35-22.65,2.51-3.1,2.36-5.2,2.05-8.95l-11.78-.23c-8.74-24.71,18.15-31.95,33.65-42.9,68.01-48.07,142.57-86.95,217.45-124.55l12.67-8.3c-12.31-3.39-15.75,3.94-23.29,7.68-35.63,17.67-61.63,20.48-97.22,43.77-7.91,5.18-35.81,15.49-47.28,21.72-76.49,41.51-150.71,83.08-225.57,128.43-32.73,19.82-66.83,36.82-96.7,61.3-4.79,3.93-12.73,12.84-18.02,17.98-16.73,16.22-50.17,54.33-71.86,58.32-10.43,1.92-19.14-12.27-13.17-19.35,3.52-4.18,25.72-15.7,32.96-21.03,48.78-35.9,105.46-88.15,158.37-115.63,29.5-15.32,56.93-33.25,86.44-49.55,3.37-1.86,7.6-2.86,11.36-3.68,1.34-7.86-9.41-.69-13.06-7.98-4.19-8.36,7.36-17.7,13.04-23.02,15.9-14.91,35.08-25.68,52.68-37.32,11.46-7.58,37.44-27.75,48.84-31.16,2.15-.64,4.31-.61,6.51-.47-3.19,4.85.44,11.13-.32,14.59-1.6,7.26-45.76,29.42-54.16,35.36-3.99,2.82-12.39,12.91-16.42,16.06-3.48,2.73-9.71,2.75-11.1,7.97l3.99,1.99c-3.06.19-10.27,4.11-7,8.01,5.32-2.15,9.87-7.12,14.53-9.47,60.01-30.36,120.76-61.98,180.01-93.99,6.08-3.28,17.7-2.12,16.48-12.52.37-1.81,1.04-1.74,2,0,2.55-2.52,6.93-3.38,10-2,23.79-6.13,48.91-14.94,72.47-22.53,7.34-2.36,39.89-11.91,43.4-14.6,2.02-1.55,2.66-2.11,2.12-4.86-15.29-5.63-27.37,7.85-39.96,13.02-11.09,4.55-37.99,11.08-50.03,12.97-5,1.84-5.94-.46-2-4,3.2-3.15.54-5.42,10.06-8.94,25.27-9.35,60.01-19.76,86.37-27.63,42.02-12.54,85.46-12.01,128.03-19.97,63.01-11.79,116.63-32.26,182.52-39.48,6.85-.75,30.45-7.02,34.1-2.06,4.42,6.02-10.34,12.85-14.58,13.65-3.32.63-7.72-1.65-12.91-1.17-7.84.73-12.23,5.81-17.06,7.12-15.72,4.24-38.33,6.85-55.06,10.94-39.39,9.62-77.76,21.81-116.01,31.99-26.38,7.03-53.27,13.68-78.88,23.12-9.44,3.48-36.98,19.75-45.35,17.96-2.03-.43-9.21-7.52-14.26-7.5l6.98,8.01c3.5,5.53-13.54,9.08-16.42,10.48-73.2,35.67-147.87,70.77-214.26,115.75-13.28,9-32.31,22.96-41.27,35.72-1.43,1.5-.76,2.17,2,2Z"/><path class="cls-4" d="M2022.13,1747.99c44.72-11.49,114.84-35.12,159.31-35.85,10.59-.17,18.89,4.63,18.68,15.82-4.86-.41-8.61,3.16-13.11,3.92-18.51,3.12-41.37,1.44-59.77,4.23-55.44,8.4-126.77,34.98-180.06,53.94-61.38,21.84-145.75,52.02-195.2,92.8-3.79,3.12-6.09,10.29-10.79,13.21-7.34,4.55-18.58,1.92-17.17,15.82-13.21-2.45-10.79,6.29-16.75,12.27-5.08,5.1-16.34,11.62-22.25,17.74-6,6.21-14.85,21.21-20.99,27.01-2.62,2.48-28.66,17.73-31.84,18.33-4.55.85-13.99-.43-16.07-5.21l7.17-1.86c-1.28-11.07,4.27-9.29,6.88-13.04,59.25-85.24,169.9-140.57,264.56-177.51,25.75-10.05,59.71-18.14,83.39-29.61.76-2.5,3.42-3.83,8-4,10.67-5.19,24.72-8.47,36-8Z"/><path class="cls-4" d="M2022.13,1743.99l-1.44,2.49c-12.02,1.86-23.54,5.03-34.56,9.51-3.8,1.75-6.46,1.75-8,0-57.02,9.42-107.01,34.66-161.58,51.42-18.29,5.62-38.62,9.25-57.3,14.7-84.63,24.68-160.74,65.75-237.64,107.83-61.81,33.83-125.75,68.54-185.35,109.18-4.94,3.37-25.85,22.11-27.58,22.57-7.23,1.93-27.19-5.43-21.29-15.88,6.34-1.39,9.93-8.64,14.07-11.41,17.2-11.5,40.31-22.63,58.74-33.34,91.77-53.32,184.86-105.21,280.58-151.42,43.26-20.89,97.26-37.16,143.29-52.71,68.99-23.32,139.51-44.28,208.65-65.34,2.82-.86,4.34-4.66,6.8-5.3,4.95-1.29,18.93,3.65,23.99,4.99,1.59.42,11.62-2.77,7.67,4.75-.55,1.04-7.86,7.44-9.05,7.96Z"/><path class="cls-4" d="M762.12,1900l-.22,9.77c-17.19.99-20.43,21.28-35.43,24.52l-.11,7.53,5.8,1.17c1.71,8.47-12.32,16.93-19.01,21.02-8.29,5.07-52.1,24.47-58.18,16.11-2.78-6.32,1.65-12.26,6.13-16.16,29.83-20.2,61.46-39.08,90.28-59.63,1.62-1.16,9.72-5.5,10.74-4.33Z"/><path class="cls-2" d="M1442.13,1793.99c-6.44,1.08-11.93,4.95-18.99,4.01-6.74-11.55,36.3-22.31,38.98-20,.44,2.96-6.41,11.35-7.99,11.99-3.21.95-6.54,2.28-10,4-.64.13-1.35-.11-2,0Z"/><path class="cls-4" d="M1426.13,1773.97c-12.98,1.99-21.54,12.79-35.99,12.01-1.44-6.88,4.42-2.52,7.55-4.41.91-.55,4.36-7.64,8.54-10.48,6.55-4.46,18.13-8.16,19.9,2.88Z"/><path class="cls-3" d="M2022.13,1743.99v4c-12.99,3.34-22.52,5.78-36,8,.63-.31,2.16-3.31,5.95-5.01,8.85-3.97,22.48-3.63,30.05-6.99Z"/><path class="cls-3" d="M1986.13,1755.99c-2.7,1.35-5.23,2.66-8,4v-4c2.46-.41,5.53.41,8,0Z"/><path class="cls-2" d="M1442.12,1758c1.42,8.53-5.32,15.4-13.98,13.98l13.98-13.98Z"/><polygon class="cls-2" points="728.12 1754 728.12 1757.96 720.14 1759.98 720.14 1754 728.12 1754"/><path class="cls-3" d="M790.13,1949.99c11.56-2.84,4.93-2.33,9.06-9.94,2.41-4.43,9.12-4.21,13.73-6.27,2.04-.91,15.51-11.23,11.13-.87-2.46,5.83-12.88,3.83-15.99,6.02-1.96,1.39-1.57,5.69-4.05,7.95-3.21,2.94-14.08,6.51-17.9,9.1l.16-5.82c1.22-.73,2.79.08,3.84-.18Z"/><polygon class="cls-8" points="1584.12 1978 1584.12 1987.97 1580.14 1987.98 1580.14 1978 1584.12 1978"/><path class="cls-2" d="M1482.13,1775.99c-2.03.32-4.89,3.01-7.99,1.99v-3.96c1.69-.54,4.86-.92,5.99-2.03l2,4Z"/><path class="cls-8" d="M1454.13,1789.99v2c-3.88,1-6.38,1.29-10,2,1.25-5.68,7.63-3.03,10-4Z"/><path class="cls-8" d="M2042.12,1634c.65,3.64-2.2,6.62-5.98,5.98l-1.97-7.01,7.95,1.03Z"/><path class="cls-3" d="M1304.13,1941.99l-5.99,3.99v-2.98c.54-1.56,3.43-2.22,3.99-3.01.56.74,1.46,1.28,2,2Z"/><path class="cls-2" d="M854.12,1848c.86,4.1-2.01,4.66-4.59,6.39-8.31,5.56-17.72,10.58-26.2,15.89-9.67,6.05-23.94,14.22-35.88,20.03-5.89,2.87-12.67,6.3-19.28,6.7,7.19-10.28,23.72-13.15,32.72-19.25,2.69-1.82,3.74-5.52,6.57-7.43,14.38-9.79,29.38-18.9,46.66-22.32Z"/><path class="cls-3" d="M66.13,871.99c2.71-2.09,3.73-4.9,7.84-7.17,4.73-2.61,26.56-9.99,30.15-6.82.5,4.76-4.96,6.9-5.62,11.39-.33,2.26,1.21,11.67,2.99,12.69,9.67,5.53,19.01-6.21,26.64-10.08,2.51,3.45,5.77,4.84,9.79,4.19l2.21,3.81c3.85.12,6.08,3.37,6.69,9.75,29.04,2.88,58.83,6.17,87.11,14.84,61.54-3.58,126.97-1.64,188.03,6.66.52-1.24,1.05-2.2,1.6-2.22,29.17-.89,58.46-2.63,87.49-5.03,6.18,1.61,12.39,2.94,18.64,3.98,60.26-.95,120.28.74,180.04,5.07,48.25-4.4,92.63-7.96,142.27-6.73,99.85,7.01,199.4,6.57,298.68-4.14l90.96-.76c.24-3.15,1.73-4.96,4.48-5.43,30.14.85,66.12-2.25,96.92-4.08,6.06-.36,15.9-1.25,21.08,2.08-6.64,2.75-13.97,4.44-20,8-7.15,3.35-15.15,5.35-24,6-.69.86-.02,1.52,2,2,8.5-4.81,18.5-6.81,30-6,27.79-6.47,55.56-14.46,84.41-15.58l51.49,20.68c7.75,10.56,9.97,18.1,10.1,30.9l-4.36,2.24c-5.67-2.7-11.97-3.06-17.99-1.62-31.72,16.11-62.61,21.27-99.3,23.85-44.81,15.74-83.64,24.47-131.85,25.79-53.37-1.65-104.29-1.73-157.8,4.12-83.25,14.13-166.94,19.63-250.88,15.24-3.54-.19-6.78-1.92-9.81-3.61l-1.79-2.17c6.1-6.15,12.58-12.47,19.45-18.98l-13.02-10.14c-91.79-1.74-184.13-.69-277.02,3.15-31.41.35-63.35-.4-92.6-9.12-15.65-1.95-45.31,4.42-55.02,17.27-9.11-1.65-18.69-3.2-28.75-4.65l-57.05-3.03c-43.45-9.65-86.37-10.49-128.75-2.5-20.18,1.79-103.42-7.76-114.73-24.25-3.77-22.87-13.09-33.98-36.62-33.37-4.56-4.51,1.54-15.94,4.52-20.78l21.38-25.42Z"/><path class="cls-6" d="M1356.13,633.99c11.8,9.59,5.61,14.77,7.95,24.61.54,2.25,5.66,2.43,7.08,5.34,3.83,7.82,4.39,40.31,2.85,48.94-1.27,7.14-10.49,17.18-11.57,22.59-.91,4.52,2.08,11.9,1.67,12.44-.34.45-7.08,1.3-10.07,5.01-4,4.97-6.44,16.87-9.85,22.14-7.95,12.25-42.86,29.83-56.95,35.05-13.14,4.87-36.98,4.85-45.13,8.88-2.41,1.19-3.79,4.38-4.02,7.01-11.52-8.31-24.73-2.01-36.86-1.9-11.08.1-32.26.82-41.93-.09-4.91-.46-40.48-16.45-46.69-19.56-2.03-1.02-5.85.31-8.03-.9-4.06-2.25-32.73-39.5-35.41-45.57-10.23-23.21-3.89-47.25-1.06-71,1.36-11.45-1.05-28.78,7.13-38.87,5.63-6.95,21.3-23.73,28.03-29.97,20.35-18.86,59.79-30.74,87.02-38.98,13.07-3.96,11.98-2.88,22.89-1.9,2.61.24,25.17-6.69,30.08-7.15s21.74-1.14,25.46-.13c1.94.53,2.39,4.9,5.85,6.57,4.27,2.05,9.96.92,14.37,3.66,3.61,2.24,5.88,9.34,10.23,11.78,4.97,1.85,2.18-5.16,2.98-5.99,4.88.49,9.38,2.6,13.99,4.01,14.74,9.96,22.5,18.48,26.45,36.76,8.28-1.19,12.8,1.22,13.55,7.24Z"/><path class="cls-6" d="M560.13,889.99c3.67,1.72,6.32,1.64,10,0,29.59.68,58.38,5.28,86.94,6.1,68.09,1.95,135.54-4.02,204.15-2.2,33.81.9,68.61,4.77,101.47,5.5,1.84.04,12.8-1.26,14.19-1.72,2.75-.92,2.7-4.71,3.62-5.28,4.08-2.56,11.35,3.4,16.65,3.76,30.05,2.04,63.39.12,94.07-.07,3.24-.02,7.6-2.06,9.69-1.64,2.62.52,4.33,4.97,6.5,5.37,1.83.34,4.86-3.05,7.92-3.64,25.44-4.94,49.29-3.5,73.8-4,10.6-.22,28.29-5.21,39.94-4.16,3.86.35,11.83,7.83,17.07,7.98l.09,9.07c-29.37,2.6-59.57-.24-89.17.85-47.34,1.75-96.33,9.08-143.92,9.67-72.11.91-145.19-7.12-217.79-5.83-32.3.58-67.9,10.72-100.12,6.14-11.13-1.58-9.88-1.82-22.19-1.82-38.03,0-78.01-1.98-117.98-2.18-8.97-.04-24.52.93-33.1-.74-7.24-1.41,1.32-3.84-16.82-2.98-17.13.81-30.31,3.58-48.03,3.65-10.59.04-21.2,1.01-31.87.03l-1.11,6.15c-20.91-10.49-46.25-6.61-68.96-8.04-22.22-1.39-43.82-4.19-66.01-4.16-15.33.02-47.66,5.88-61.72,1.58-25.54-7.82-39.6-9.43-66.29-11.81-5.79-.52-11.45-2.68-17.69-1.5l-3.32-14.09c-.5-4.31,3.95-8,8-6,3.96-1.74,9.05-3.64,13.52-5.56,17.33-7.47,80.65,13.5,103.5,15.53,43.67,3.88,96.37-2.2,140.09,3.92,6.63.93,8.21,5.62,10.15,5.94,2.31.38,4.52-3.44,7.62-3.66,13.36-.94,34.49,2.54,50.19,1.9,22.46-.92,45.07-7.65,67.78-3.93,8.72,1.43,10.51,1.48,19.15,1.86Z"/><path class="cls-6" d="M763.84,571.72c-.59.65-5.09.44-7.85,3.12-2.49,2.42-2.74,7.83-5.17,9.33-3.27,2.02-10.23,1.81-15.38,4.13-8.99,4.06-15.53,14.05-21.9,19.08-2.05,1.62-6.41,1.28-9.33,3.67-3.1,2.53-16.9,15.79-17.66,18.35-1.1,3.7-1.11,25.83.56,28.62,12.71,5.31,29.65,9.79,37.14,22.86,13.75,23.98-31.78,61.71-53.23,64.99-8.06,1.23-34.45,3.2-41.77,2-14.77-2.41-27.06-23.43-28.94-37.06-3.95-28.64,1.86-71.34,15.75-94.3,9.57-15.82,23.15-30.31,37.17-42.42,6.61-5.71,8.87-13.3,20.89-14.13l-.23-3.79-3.81-1.46c-2.3-13.12,6.73-10.68,12.65-14.61,2.31-1.53,2.42-5.27,5.44-7.03,11.03-6.43,40.52-6.76,52.47-2.59,2.62.91,18.94,11.37,20.38,13.62,2.77,4.31,4.97,25.24,2.82,27.62Z"/><path class="cls-2" d="M922.13,369.99c7.7-16.23,18.64-9.27,30.11-12.89,4.53-1.43,6.61-6.1,10.03-7.97,6.58-3.6,24.95-4.29,21.58-15.76-2.74-9.34-18.71-6.04-25.72-5.4,2.48-5.21,11.93-7.21,17.2-7.79,10.05-1.1,19.86,3.34,27.82,3.97,5.33.42,10.45-2.94,15.78-.37l1.21,12.2c7.54-.1,12.76-4.91,20.8-3.95,6.63.79,18.4,7.33,27.07,9.07,10.37,2.08,22.52,1.56,32.65,3.35,9.43,1.67,23.62,8.6,32.78,8.86,16.41.47,33.28-21.64,54.62-24.48,12.98-1.73,15.29,4.57,23.22,5.13,5.48.39,7.85-4.1,12.83-3.97v14c22.85-.36,46.06-.09,68.52,4.48,3.54.72,7.37,3.45,11.48,4.52,8.52,2.23,24.4,1.42,26.01,10.99-26.97,5.3-58.81,6.56-86.88,6.1-10.02,1.38-19.06,0-27.12-4.1-.26,0-2.25-1.97-4.84-2.08-7.69-.33-15.48.38-23.16.08-.53,1.9-1.72,3.02-3.64,3.27-19.33-7.3-33.26-9.39-52.85-1.59l-3.52-3.68-3.83,2.49c-40.41-3.37-80.58-3.06-120.52.92-19.65,4.43-39.19,8.38-59.22,10.33-6.3.61-20.49.82-22.42-5.74Z"/><path class="cls-6" d="M1623.6,624.42c17.07-3.47,28.28,4.61,37.37,17.73,1.43,2.06,12.04,20.55,12.28,21.78.78,3.91-1.45,7.67-.75,12.52,1.39,9.71,16.27,18.66,1.11,30.01-9.17,1.11-20.65,7.86-28.64,9.34-3.97.73-32.75.48-37.83.19-4.6-.27-24.06-3.14-26.92-5.08-3.26-2.22-11.32-23.52-11.96-28.04-2.33-16.21-1.61-31.28,13.16-40.59,5.09-3.21,36.91-16.78,42.18-17.85Z"/><path class="cls-6" d="M908.13,431.99c-14.27,7.32-21.62,10.17-35.79,21.21-8.47,6.6-7.26,4.36-15.33,8.67-6.12,3.27-22.82,15.45-27.9,20.1-2.02,1.85-3.65,2.86-2.97,6.01,3.93,3.46,47.76-12.45,55.37-15.61,71.23-29.51,140.27-70.4,217.72-82.28,5.07-.78,21.07-2.27,23.93,1.89.32,6.47-9.57,3.11-13.93,4.1-80.79,18.21-158.5,60.16-231.65,98.35-15.95,3.44-40.88,20.08-55.76,22.24-3.95.57-7.73-.71-11.66-.72l1.96-15.95-17.97,5.99c-4.58-8.99,3.19-18.92,9.97-25.01,13.52-12.15,75.7-45.56,94.01-52.99,12.89-3.59,16.22-2.25,10,4Z"/><path class="cls-6" d="M2016.13,829.99c-.25-12.42,5.47-21.18,5.95-29.1.18-2.94-3-9.69-1.92-10.84.29-.31,4.69.05,8.03-2.97,6.72-6.08,17.34-28.17,23.89-36.13,23.85-29.01,28.97-42.51,44.44-75.39,10.43-22.18,31.04-32.9,43.59-50.57,6.37-8.96,3.38-14.41,3.99-14.96.28-.26,4.13-.08,5.99-.99,9.74-4.79,33.17-12.45,43.62-7.67,1.05.48,2.35.37,2.49,1.95l-.95,12.79c-4.7,4.89-11.17-.55-16.03-.08-15.71,1.51-48.38,29.95-57.1,42.95-4.01,5.98-4.29,13.71-7.14,18.86-10.33,18.66-14.96,23.64-24.41,45.59-5.9,13.7-22.46,29.4-30.13,43.87-7.27,13.72-10.78,30.32-20.26,43.2-3.07,4.17-13.7,10.68-16.05,17.49-.08,5.57-5.13,6.44-8,2Z"/><path class="cls-6" d="M1188.13,363.99c8.64,1.72,17.18,4.61,25.99,2.01l-4.01,20c-9.03-7.56-17.09-1.14-26.97-1.88-11.35-.86-28.24-5.18-40.01-6.17-6.65-.56-13.11,1.82-19.69.17l-1.3-10.12c-.56-3.16,1.44-5.16,6-6,8.05-.17,20.77-6.18,26.97-6.24,7.26-.06,24.62,6.56,33.03,8.24Z"/><path class="cls-7" d="M1128.13,361.99c-1.11,2.19-3.57,5.61-6,6-3.18.51-8.66-2.01-12.92-2.09-27.15-.47-59.48-1.76-86.16,0-24.65,1.63-50.83,9.4-75.94,12.06-38.15,4.06-76.93,2.65-114.98,6.02,2-3.49,5.59-3.33,8.92-4.08,5.68-1.28,18.22-4.61,22.9-4.99,3.95-.32,6.64,3.49,11.04,3.09,12.47-1.14,31.53-8.05,47.14-8.02,4.81.01,16.76,3.29,23.34,3.25,26.13-.17,51.05-11.27,75.59-13.32,35.07-2.93,72.62,2.81,107.07,2.07Z"/><path class="cls-6" d="M676.13,479.99c37.5-20.43,76-41.98,116.55-56.45,6.34-2.26,14.68-1.93,19.93-4.07,3.98-1.62,6.31-6.73,8.8-7.2s6.32,3.35,9.89,3.73c4.55.48,8.36-2.3,12.82-2-1.65,2.3-1.16,7.02-3.41,8.01-6.43,2.84-26.07,4.32-34.7,6.86-38,11.16-87.2,36.07-123.89,53.11-4.92,1.57-6.92.91-6-2Z"/><path class="cls-7" d="M1330.13,363.99c8.27.22,15.82-.24,24,2.02v3.98h-29c-8.32,0-21.44,5.32-29,6-25.62,2.29-51.43-3.12-77.06-1.98l-2.94-8.02c37.78,1.25,75.9-3.02,114-2Z"/><path class="cls-6" d="M173.72,834.38c11.41-.95,22.39,8.12,18.08,20.28-.58,1.63-7.94,6.96-8.7,6.95-1.34-.01-3.55-4.4-6.37-5.25-5.26-1.59-16.38,2.2-18.32-3.66-4.08-12.32,4.27-17.41,15.3-18.33Z"/><path class="cls-3" d="M1356.13,633.99c-7.48-6.08-10.16-.96-17.61-4.41-.85-7.14-6.1-21.01-10.58-26.39-3.85-4.61-12.09-3.74-11.8-13.2,22.25,6.82,29.15,15.23,39.02,35.98.97,2.04,5.01,6.81.98,8.02Z"/><path class="cls-7" d="M1450.13,379.99l-3.33,8.09c-12.92-.64-26.2-2.63-38.67-6.09,17.76-5.51,23.77-4.39,42-2Z"/><path class="cls-7" d="M780.13,393.99c-1.17,3.98-21.11,6.26-24,2,.4-.57-.08-6.1,0-8-5.48-9.07-4.81-14.41,2-16l4.5.94c3.49,8.68,9.67,16.03,17.5,21.06Z"/><path class="cls-7" d="M148.13,873.99c-1.08.47-1.39,4.99-8,6-4.24.65-9.55-.45-13.99-.01l1.99-7.99c1.83-2.75,8.77-6.08,10-8l10,10Z"/><path class="cls-4" d="M676.13,479.99l6,2c-4.1,1.9-36.04,20.08-37.99,17.99-5.95-6.39,13.8-10.11,15.8-11.18,5.29-2.84,11.14-6.06,16.19-8.81Z"/><path class="cls-4" d="M1008.13,385.99c.59-2.37,3.21-4.82,5.46-5.54,2.69-.87,15.15-4.08,17.79-4.47,4.26-.63,4.89.79,6.76,4.02,2.37,1.21,1.71,2.54-2,4-8.21,1.36-19.45,1.24-28,2Z"/><path class="cls-2" d="M908.13,431.99l.02-4h-10.02c15.68-6.36,20.88-7.16,34.72-15.26,3.82-2.24,17.77-7.16,11.32.3-4.2,4.85-9.3,3.73-13.87,6.14-7.06,3.71-14.66,8.98-22.17,12.83Z"/><path class="cls-1" d="M1064.13,373.99c1.94-.13,20.43-.88,13.99,3.99-15.84-3.1-27.71,3.65-41.99,6.01.76-.97,1.33-3.55,2-4,5.12-3.41,12.66-3.11,18-4,2.01-2.4,5.11-3.01,8-2Z"/><path class="cls-1" d="M224.12,824c5.97,4.54-14.19,6.3-15.98.98l15.98-.98Z"/><path class="cls-3" d="M830.13,383.99c-5.39,5.47-13.38,3.36-20,4,5.38-5.49,13.39-3.33,20-4Z"/><path class="cls-1" d="M2024.13,827.99c-.63,1.83.48,5.68,0,8.01h-7.98c-.1-2,.03-4.01-.01-6.01l8-2Z"/><path class="cls-1" d="M988.13,394.01c-2.75,6.32-6.24,6.22-11.99,3.95-1.63-7.11,7.86-3.05,11.99-3.95Z"/><path class="cls-2" d="M974.13,400.01c-1.96,5.49-8.69,5.39-11.99.97l11.99-.97Z"/><path class="cls-1" d="M1734.12,670.01v1.95s-11.99,2.01-11.99,2.01c1.54-5.07,7.61-4.09,11.99-3.96Z"/><path class="cls-2" d="M800.13,389.99c-1.87,2.89-4.82,3.66-8,4,.76-10.15,7.05-3.92,8-4Z"/><path class="cls-1" d="M2108.12,205.98h-5.98s0-5.98,0-5.98c3.78-.64,6.63,2.34,5.98,5.98Z"/><path class="cls-7" d="M570.13,889.99l-5,4.13-5-4.13c3.32.14,6.67-.08,10,0Z"/><polygon class="cls-1" points="1192.12 566 1192.11 575.98 1190.16 575.97 1188.14 566 1192.12 566"/><path class="cls-1" d="M1622.13,61.97h-7.99s0-3.97,0-3.97c3.73-.52,6.92,0,7.99,3.97Z"/><path class="cls-2" d="M1064.13,373.99c-.41.03-5.4,1.57-8,2,1.41-4.37,4.61-4.75,8-2Z"/><polygon class="cls-1" points="1004.13 388.01 1001.1 391.97 998.14 391.98 998.14 388 1004.13 388.01"/><path class="cls-4" d="M636.13,497.99c.95-.33,2.62-3,4.95-2.04l1.03,2.02-3.99.02h-2Z"/><path class="cls-4" d="M638.13,505.99c-.78-2.01,1.96-3.78,2-4l-2,4Z"/><path class="cls-1" d="M1008.13,385.99c.94.94-1.85,3.18-2,1-.05-.69,1.55-1.45,2-1Z"/><path class="cls-2" d="M1014.13,93.99c22.13-5.21,44.63-8.17,66.54-12.46,7.9-1.55,19.09-6.9,26.43-7.63,11.26-1.11,18.24,8.39,32.28,9.84,11.26,1.17,33.14-5.06,30.46,12.8-1.11,7.39-15.11,16.01-15.89,24.42-.87,9.46,5.17,11.57,5.66,16.24,1.81,17.36-5.69,46.16-12.1,63.16-3.59,9.5-13.18,18.85-11.36,31.62,11.61,1.94,20.27-7.98,26.82-16.16,7.93-9.9,28.65-55.26,30.69-67.31,2.59-15.3-1.02-31.02-1.26-46.27l59-16,6.71,1.72c-12.79.98-20.53,8.69-30.4,14.59-2.42,1.45-6.94,2.95-.56,3.5,30.82-4.82,59.66-18.15,90.96-20.05,1.04,5.7-1.41,3.26-4.4,4.49-8.7,3.57-14.92,2.06-22.05,4.05-9.06,2.52-44.31,16.45-48.61,23.39-7.14,11.55,9.23,1.75,12.53.53,40.26-14.83,92.08-27.43,134.12-35.88,7.98-1.6,55.47-6.72,58.41-2.56-1.19,6.01-6.34,7.99-11.89,9.07-11.7,2.28-60.95,4.46-65.13,12.87-1.57,3.15-2.09,11.05.89,13.16l16.12-1.12c.63,6.44-8.09,6.12-9.62,11.36-1.23,4.18.02,9.6-1.26,14.74-6.7,26.78-13.09,27.33-11.01,58.99.4,6.09-4.93,11.8,3.96,15.85,7.95,3.63,20.49-2.72,23.06-10.85,2.24-7.07-.12-14.46.79-21.21,1.03-7.64,3.14-19.39,4.58-27.42,2.06-11.46,11.1-32.35,20.86-39.14,11.08-7.7,42.11-17.07,55.88-20.12,26.97-5.95,55.56-5.52,82.77-3.23-2.62,3.92-13.33,9.99-17.42,10.53-3.06.41-7.51-3.94-13.54-3.68-10.01.43-32.28,10.43-42.57,11.79-6.34.84-10.28-2.38-16.47-.78-5.26,1.36-27.92,17.53-23.99,23.14,1.86-.11,3.65,1.33,5.31,1.39,4.27.15,30.35-8.36,36.64-10.41,29.05-9.46,59.37-19.55,89.52-24.48,10.04-1.64,20.35-2.82,30.51-2.47.23,8.76-9.21,4.85-14.58,6.4-3.39.98-5.66,6.01-10.83,7.17-6.24,1.4-12.74-.47-19.06.94-10.97,2.44-26.54,12.81-25.51,25.47,7.94,2.6,10.69-3.58,15.54-5.44,26.6-10.17,61.63-22.34,89.78-23.8,28.27-1.46,75.7,13.45,102.62,24.3,12.61,5.08,20.59,11.82,31.27,16.73,15.36,7.07,22.04,2.72,28.21,23.79,2.66,9.1.31,15.4,1.21,21.17.95,6.06,4.71,11.48,5.37,18.25,1.63,16.87-6.14,36.09-18,48.02,10.08,2.24,2.87,22.1.07,30.07-3.01,8.58-8.84,14.08-11.55,20.45-3.01,7.04-3.87,17.42-8.12,25.88-4.1,8.16-19.79,29.26-28.34,31.8-6.09,1.81-9.55-1.81-12.76-1.36-1.66.23-2.04,4.48-4.45,5.93-1.62.98-17.2,7.72-18.18,7.81-3.93.33-17.93-6.52-25.49-5.57-4.7.59-14.12,6.94-20.3,7.87-20.2,3.05-41.84,4.49-61.7,6.28-9.78.88-33.97,9.99-35.25-6.12-16.18,5.77-15.35-1.35-25.29-7.68-4.02-2.56-33.51-17.49-36.09-17.99-3.29-.63-6.26,1.79-9.46,1.57-58.69-3.89-134.86-19.89-192.63-35.46-2.74-.74-5.68-.47-8.47-.49l.03-5.99c25.56,10.1,40.28-19.1,10.39-21.6-14.83-1.24-23.02,19.77-32.3,22.7-7.77,2.45-17.96.12-26.11.89-.28-3.46-.28-6.17,1.86-9.14,2.27-3.16,34.63-19.47,39.61-20.39,21-3.85,29.77,5.72,30.36-26.3-7.6-5.98-21.18,2.68-24.51,1.68-3.13-.94-6.91-11.74-12.73-13.43-5.35-1.55-20.66-1.09-25.43,1.83-7.4,4.54-16.75,12.83-25.82,18.1-9.58,5.57-20.3,8.13-28.42,15.58-9.45-1.61,6.21-7.53,9.73-10.28,25.93-20.22,59.28-42.61,90.89-53.1,9.46-3.14,39.43-5.03,41.54-14.52,1.54-6.93-8.95-1.87-11.99-2.07-4.09-.27-6.78-4.36-11.61-3.64-4.18.62-29.76,11.65-35.9,14.26-20.19,8.59-40.23,18.62-60.34,27.66-14.64,6.59-24.27,18.06-43.23,13.75,1.75-5.47,9.53-11.13,13.96-15.02,10.2-8.97,33.74-28.24,45.96-32.04,8.29-2.57,20.02,1.44,20.06-12.91-14.15-5.99-28.42,3.44-40.6,10.37-23.98,13.66-48.62,38.11-70.04,49.96-9.7,5.36-104.67,44.73-110.64,44.95-2.55.09-22.96-2.91-25.37-3.64-2.74-.83-4.29-2.81-2.4-5.72.88-1.37,24.82-13.61,28.64-15.36,12.62-5.78,31.74-14.56,45.32-12.45,4.99.77,9.24,5.45,14.9,3.69,2.56-6.12,4.47-14-3.08-17.43-21.02,5.67-42.8,8.17-63.26,16.09-12.1,4.68-22.83,12.51-34.08,17.91-2.59,1.24-17.72,8.96-18.76,9.15-13.75,2.51-46.5,1.16-61.34-.2-7.01-.64-19.97-2.67-27.77-3.86-12.5-1.9-11.33-9.07-25.12-.03-5.19,3.4-4.09,9.26-14.39,6.54-2.06-1.72,9.37-14.96,9.75-17.36.51-3.24-4.47-5.02-5.42-8.04-2.56-8.13,5.17-13.07,9.67-18.58,5.21-4.05,9.88-8.72,14-14,4.13-4.85,8.26-9.69,12.99-14.01,12.91-11.76,22.02-24.71,29.01-41.99l10-12c15.71-12.04,13.73-18.81,21.88-27.12,2.84-2.9,7.46-2.78,10.21-5.79,4.3-4.7,10.99-19.69,14.99-25.01.92-1.23,20.6-18.4,22.92-20.08,4.34-1.42,8.34-2.09,12-2Z"/><path class="cls-1" d="M1916.13,1346.99c2.2-30.23,18.57-53.49,21.77-82.21.97-8.67,1.7-27.03-10.92-20.96-27.08,13.03-21.39,37.78-29.3,60.71-1.03,2.98-4.71,4.54-5.27,6.83-1.5,6.16-1.72,30.76-2.63,39.09-1.02,9.4-12.58,23.28-9.68,35.52-3.2,0-3.21-6.85-3.67-9.3-10.07-53.75,3.74-122.51,31.97-169.4,2.3-3.83,8.49-7.45,9.41-10.7,3.35-11.74-14.37-13.89-22.55-4.44-1.68,1.95-23.87,40.96-24.68,43.32-4.46,12.95-9.94,30.65-13.88,44.12-9.82,33.65-15.1,67.4-16.61,102.41-4.75-3.56-7.63-14.11-9.08-19.9-12.23-48.89-.21-74.6,3.17-119.32.24-3.2-5.16-1.16-4.09-11.73,1.19-11.73,13.79-46.44,12.07-53.73-.36-1.51-4.12-1.36-4.16-2.37-.19-5.48,10.47-18.66,12.56-23.5,3.45-8.03,8.03-28.29,5.27-36.21-1.17-3.35-6.27-1.84-5.8-6.09.34-3.12,3.17-5.82,3.64-8.59,4.49-26.39,13.91-40.61,19.6-62.47.94-3.61-1.82-6.99-.88-10.63,2.45-9.6,44.02-43.2,54.77-49.41,17.25,1.7,39.25-2.53,55.84.08,17.94,2.83,25.81,25.13,46.52,12.26,18.42-11.45,53.17-52.83,55.8-74.37.64-5.27-1.57-8.55-1.19-12.83.51-5.7,8.18-15.61,8.25-22.93,11.77,1.44,23.66-5.48,34.75-5.84,17.29-.57,50.27,1.71,66.6,7,19.05,6.16,7.78,13.82,12.88,18.13,10.15,3.91,21.34,1.2,31.52,5.47s20.76,15.44,28.98,23.03c2.71,2.5,7.72,3.03,9.18,5.3,2.74,4.26,3.65,15.31,3.85,20.67l9.97-8c-5.27,11.7,2.55,22.43,3.86,33.16,2.18,17.86-5.62,62.81-10.26,81.41-.68,2.72-9.91,24.39-12.04,29.96-10.87,28.41-24.35,56.35-35.08,84.92-3.54,9.43-14.16,14.82-14.52,15.89-6.37,18.7-14.52,36.13-21.4,54.19-7.52,19.73-11.15,58.2-22.78,75.23-2.53,3.71-6.27,4.37-7.8,6.73-13.29,20.33-20.77,48.96-37.86,65.6-4.25,4.14-10.45,6.05-13.05,8.97-1.9,2.13-2.51,7.16-3.31,7.65-2.36,1.45-8.11-.8-9.59.53-.64.57.77,4.42-1.31,5.95-.86.63-18.62,7.56-19.98,7.74-6.39.85-12.37-1.52-18.56-2.21-4.66-13.57-.3-29.39-2.38-42.62-2.25-14.3-2.06-13.28-1.82-28.02.38-22.67,1.66-45.1,2-67.74-7.97-10.01-29.7,10.69-31.6,18.15-2.52,9.89,1.41,20.17.97,28.95-.54,10.7-4.41,21.52-3.53,32.47l-4.87,13.04c-9.47-14.67-3.35-34.24-5.12-51.01l12.24-51.96c-5.62-19.93-20.5-6.42-30.14,2.56-3.29,20.13-9.84,39.96-13.56,59.95-.54,2.92,1.62,6.15,1.16,9.1-.56,3.59-4.72,6.16-5.55,10.49-1.76,9.2-.27,29.54,3.54,38.29,1.22,2.8,10.15,12.98,8.37,14.61-7.62-2.18-31.79-8.39-33.94-15.51-2.44-8.07-2.52-26.64-2.03-35.46,1.47-26.47,14.16-57.83,14.04-82.08-.03-6.51-4.99-9.18-6.1-14.93-2.91-.79-3.33.78-5.01,1.94-2.53,1.74-23.02,19.08-23.63,20.52-3.03,7.18,1.01,10.93.31,16.09-1.4,10.27-6.05,24.69-7.51,34.56-1.73,11.69,2.58,49.3-11.2,54.82-2.87,1.15-4.93-4-4.93-4.94,0-11.63-.83-24.6,0-36Z"/><path class="cls-1" d="M1732.12,836v5.98s-6,.02-6,.02l2.03,5.98c6.75.35,1.65-5.85,10.82-3.93,1.5.31,16.51,8.23,17.17,8.93,1.95,2.11,6.97,18.15,10.33,23.67,2.26,3.72,7.46,6.76,8.67,9.41,2.27,4.98.08,21.68-3.24,26.75-2.14,3.28-7.96,2.42-5.64,8.06.95,2.3,5.21,2.44,6.55,5.56,2.93,6.83.2,16.04,2.19,23.75,1.12,4.35,9.41,6.34,9.12,14.58-.14,3.8-3.35,8.04-3.83,12.36-1.54,13.93-2.05,31.95-.08,45.76.49,3.42,4.19,5.56,3.97,9.9-.34,6.51-9.87,31.77-11.88,42.37-1.4,7.38-5.22,27.46-5.83,34.31-.49,5.52.63,14.21-.13,23.72-6.07,75.34-40.1,172.19-80.49,235.5-7.28,11.4-25.72,29.61-40.22,26.85-31.67-6.04-52.31-34.63-60.04-64.02-.54-2.05-3.07-6.25-.46-7.54,4.9,5.32,7.44,16.28,11.63,21.38,3.35,4.09,24.11,21.89,28.9,24.09,2.83,1.3,14.42,5.01,16.51,3.67,1.81-8.62,12.08-10.55,12.13-18.12.06-9.53-13.1-22.34-17.81-30.39-20.43-34.9-47.38-127.33-48.44-167.55-.84-32.22,7.53-100.53,16.66-131.53,3.95-13.4,13.82-25.4,13.43-39.58-23.73-5.15-25.62,15.33-32.05,32.96-23.08,63.34-38.57,143.17-27.8,209.87,1.73,10.72,10.93,27.76,14.41,39.59,2.64,8.96,6.03,18.14,5.4,27.57l-9.09-17.87c-12.65-11.35-27.7,6.74-31.06,18.87,5.35,18.09,7.74,36.97,13.18,55.01,5.3,17.57,14.98,40.15,27.69,53.32,2.18,2.26,13.11,8.21,13.27,9.68.46,4.34-7.97,1.13-8.83,1.36-2.32.6-2.26,4.1-3.68,5.07-2.99,2.04-18.56,3.36-22.47,2.58-6.26-1.24-14.67-22-17.37-28.62-13.36-32.69-33.21-74.72-43.07-106.93-6.05-19.77.34-35.41-27.49-38.53-3.27,9.86-20.72,22.65-17.21,34.91.59,2.05,5.37.29,7.88,4.43,4.66,7.71,11.35,36.33,15.28,46.73,3.44,9.09,19.94,42.72,19.06,48.88-.55,3.82-4.72,5.1-4.05,9.11,3.06.11,6.78.12,9.58,1.36,2.45,1.09,8.61,24.71,7.11,28.13-2.91,6.63-18.5,2.46-20.38-2.86-.87-2.46.49-6.96-.64-8.32-.59-.71-4.74-.59-6.71-2.2-12.05-9.81-34.82-85.48-36.95-103.12-1.38-11.45,2.14-71.33-1.89-74.11-3.69-.94-12.93-2.1-15.72-.44-.89.53-1.5,4.08-3.34,5.55-4.09,3.26-10.09,5.17-11.02,11.07-.25,6.63-.06,13.29-.04,19.92.05,26.8-1.35,42.98,3.84,70.18.81,4.26-.83,9.71.45,13.55,1.09,3.27,6.56,3.53,7.52,6.63,1.1,3.56-2.75,8.46.17,12.65-8,.77-4.72-7.31-6.1-10.5-.87-2.03-3.46-1.66-4.47-3.98-3.94-9.06-11.07-23.85-3.43-31.46-3.92-.27-5.2-1.35-5.99-5.05-6.03-28.03-2.67-56.95-5.89-84.11-1.39-11.71-17.33-9.75-24.77-5.04-1.2.76-8.45,15.47-8.89,17.61-4.19,20.31,1.8,50.68,3.53,71.58.18,2.18,1.46,7.46-1.96,6.95-3.23-23.03-21.05-46.61-23.86-69.15-2.42-19.42-.99-42.18-2.18-61.82-1.3-21.33-7.26-45.46-4.08-68.12.67-4.79,3.89-7.4,4.29-11.87.57-6.39-3.21-12.51-2.14-18.97,12.86-1.73,26.01-2.66,38.96-3.65,18.59-1.43,24.05-7.66,40.55-11.85,31.76-8.07,66.22-9.17,94.32-29.68,15.21-11.1,27.28-33.74,34.94-51.06,3.79-8.57,6.8-33.87,16.42-35.11,10.59-1.37,20.98-4.48,31.54-8.93,12.97-5.47,17-14.74,23.6-26.4,15.7-27.75,31.4-55.12,47.75-82.25,1.96-3.26,1.35-7.3,3.86-10.14,3.07-2.42,39.38-5.54,44.92-4.87,6.03.73,10.7,5.4,19.1,1.91Z"/><path class="cls-1" d="M546.13,1215.99c6.45,13.02,9.73,20.76,25.52,23.57,3.91.7,34.8-2.38,39.06-3.55,1.66-.45,6.64-11.52,13.58-11.22l-4.01-17.43c-3.63-5.02-9.57-.62-12.16-2.31-1.81-1.18-7.61-14.2-7.99.94-7.99.19-13.54-3.38-12-11.99,4.95-.5,14.18-2.22,18.41-4.11,2.35-1.05,2.23-4.19,4.98-5.45,7.41-3.39,16.56-6.54,24.15-10.05,22.28-3.02,16.03,37.75,18.92,52.15,1.31,6.51,7.54,13.75,9.34,22.65,3.28,16.15.81,60.37-2.29,77.3-2.54,13.88-19.69,66.67-31.56,72.45-10.46,5.09-6.43-3.26-11.93-6.94.12,14.21-4.76,20-16.66,26.35-27.87,14.87-75.11,25.83-105.82,34.18-33.05,8.98-54.15,22.71-90.52,19.44-28.62-2.57-46.9-16.07-63.9-38.1-29.37-38.07-29.38-64.07-39.6-108.4-12.15-52.73-24.58-98.12-27.5-152.5-.5-9.38-.45-19.92.85-29.11,3.3-4.74,31.22-.75,38.14-.29,14.36.95,27.91,2.7,41.95,2.37,8.66-.2,15.6-2.79,25.83-1.74,16.39,1.69,27.56,9.01,46.13,9.88,17.62.83,35.58-1.6,53.16.82,4.43,2.93,7.67,31.4,10.99,37.03,2.02,3.43,6.19,3.51,6.78,4.31.73,1-2.31,6.93-1.86,10.56.42,3.43,5.87,11.68,7.43,16.76,11.42,37.29,23.39,64.3,42.59,98.41l-21.8-1.8c2.03,8.21-9.04,15.67-9.88,19.18-.46,1.92,2.39,15.5,3.51,17.31,1.41,2.27,6.57,2.72,9.24,5.24,2.13,2.02,3.03,4.99,4.98,7.12,3.73,4.09,11.21,5.6,6.94,14.97-3.73-1.09-8.25-4.36-10.97-7.03-4.63-4.57-17.43-21.43-20.89-27.11-6.39-10.48-13.79-43.04-22.95-44.99-25.27,11.09-24.31,35.82-14.56,58.49,2.65,6.17,14.49,26.79,18.61,31.39,4.35,4.85,14.21,5.26,13.76,15.22l-25.8-.19c-.98-4.52-1.38-9.34-3.39-13.61-7.09-15.05-18.2-34.55-26.45-49.54-4.16-7.55-19.91-38.3-26.22-39.9-4.91-1.24-23.14,9.28-25.86,14.49-3.98,7.65-2.27,11.72.19,19.3,5.2,16.03,16.31,31.41,23.93,46.06,6.29,12.1,22.63,49.79,32.55,55.57,5.1,2.97,27.22.8,33.09-1.14,18.39-6.08,17.45-24.92,23.97-28.1,6.73-2.58,11.26,2.82,18.95,3.23,16.12.86,32.36-4.04,33.06-22.18,5.39,5.78,30.27-5.35,31.83-9.15,3.01-7.32-8.12-4.64-9.65-10.16l1.81-10.67c-18.61-.42-28.14-24.09-36.01-38.01.59.5,3.51.24,5.04,1.87,3.26,3.46,4.51,8.53,9.45,10.63,5.35,2.27,10.55,1.1,16.07,1.92,2.64.4,5.27,3.68,8.08,3.19.87-.15,13.7-7.1,15.65-8.32,5.76-3.62,9.61-9.2,15.73-12.29-6.28-4.43-13.78-7.35-19.85-12.17-13.42-10.68-15.69-23.83-24.5-37.5-13.93-21.61-19.52-30.66-29.67-55.33-.66-2.63-.59-3.23,2-2Z"/><path class="cls-1" d="M548.13,1325.99c-1.53-1.29-1.35-2.85-2-4,1.35.88,1.39,2.92,2,4Z"/><path class="cls-8" d="M1338.13,1031.99c4.24-1.06,8.49-.34,13.05-4.04,11.94,10.92,11.29,1.64,20.05.1,9.4-1.65,25.29-.56,35.8-2.17,13.65-2.09,26.37-8.15,38.65-11.35,20.7-5.39,51.42-3.13,64.48-23.52,5.7-8.9,2.99-19,18.95-19.05,5.93.4-8.66,23.06-9.37,24.64-6.71,14.95-6.26,23.22-20.95,35.05-12.88,10.38-18.12,8.72-31.25,12.75-2.79.85-4.05,4.38-6.8,5.2-17.16,5.1-39.31,6.44-58.56,11.44-30.79,8-60.93,17.2-91.6,24.38-40.44,9.47-100.55,10.47-141.92,14.11-49.3,4.33-98.27,8.91-147.22,8.6-38.08-.24-86.88,11.79-126.22,13.94-20.88,1.14-45.18-1.82-66-2.16-54.66-.89-110.13-3.12-164.2-2.24-7.73.13-5.76-6.89-13.77-7.84-12.01-1.42-10.86,3.66-17.61,6.67-12.34,5.5-31.4-6.36-42.46-6.52s-29.58,5.09-42.05,6c-21.7,1.58-44.07.63-65.61,2.23-11.77.87-27.19,5.8-38.51,5.96-3.48.05-2.42-3.5-4.35-4.03-32.01-8.81-98.21-6.99-133.59-8.05-38.3-1.15-57.08-4.15-93.29-14.72-16.68-4.87-6.66-11.41-9.85-15.16-11.52.17-14.51-8.32-20.45-13.53-12.61-11.05-22.07-17.46-25.01-36.29-.44-2.83,1.7-4.15,1.69-4.39.71-6.23,19.81-2.17,20,4,1.1,1.55,2.45,1.42,4,0l.64-2.2c10.22-1.32,20.01-3.26,29.36-5.8h2l2.56-1.21c4.58,2.49,10.45,2.28,17.61-.64,16.33,7.96,30.48,10.86,48.87,13.04,36.91,4.36,73.78,5.11,110.8,2.63,16.37-1.21,18.28,10.72,19.7,23.9l3.17,30.85c18.64,15.18,44.83,12.11,50.21-13.83,35.18-8,73.92-7.92,110.35-2.91,5.95-6.7,11.58-6.82,19.79-4.2l165.66-5.63c15.19-4.26,24.18-1.74,34.38,10.04,15.31-8.9,32.06-11.88,49.45-13.77l3.44,3.73c3.8-5.77,14.58-6.09,18,0,4.77-.04,8.88,4.47,13.52,5.48,31.84,6.93,69.59,1.76,101.33-3.71,2.38-.41,4.71-2.81,6.2-2.92,3.75-.26,20.3,4.07,25.56,2.84,2.94-.69,6.05-6.43,12.86-7.24,73.98-8.79,143.65-13.81,218.53-16.45,30.3-2.3,60.21-6,90-12Z"/><path class="cls-7" d="M1498.13,939.99c.15,14.79-.45,21.12-6.28,34.72-7.1,16.54-17.34,27.47-35.7,17.29l.08,9.06c-6.87-.58-13.01,3.8-19.21,4.83-99.65,16.54-203.67,20.51-305.9,28.1-24.77,1.84-50.48,4.89-75.97,8.03-39.93,4.92-100.68,20.93-137.5,7.46-11.13-4.07-11.83-10.64-28.53-7.48-6.17,1.17-4.91,6.42-8.11,9.89-4,4.33-10.93,5.73-10.88,14.12-5.06.05-13.47-.27-18,0-2.24-2.53-2.17-6.26.19-11.19-32.63,4.21-33.72-22.98-30.84-48.21l4.65-.61c43.42-2.28,89.9,3.08,132.97-.03,58.31-4.2,116.07-16.47,174.01-19.99,59.57-3.62,120.63,6.4,179.46-6.54,21.34-4.69,41.57-14.51,63.1-18.9,19.19-3.91,40.46-3.19,58.56-7.44,21.31-5,41.04-26.24,63.89-13.11Z"/><path class="cls-1" d="M1316.97,1105.15c.88.91,3.26.72,3.22,1.86l-.15,1.86c-4.35,7.58-14.55,14.66-18.73,21.3-17.61,27.98-14.62,70.13-23.08,100.92l-38.2,65.79-10.5,4.52c-26.55-4.71-51.2-10.31-78.38-9.38s-58,6.6-86.11,4.07c-3.55-.32-6.47.6-8.87-3.09l18.69-1.26,3.33-9.68,11.74-.27,2.3-13.69c9.35.93,46.42-.23,38.9-16.08-1.24-2.62-5.96-4.92-7.86-8.16-6.36-10.85-15.11-28.97-18.27-41.74-5.61-22.64-2.81-51.01-8.87-74.11l51.98-4c-.11,6.93-8.68,8.32-9.95,15.03-5.27,28.04-.28,63.5.03,92.04.06,5.25-2.36,10-2.15,15.81.56,15.79,12,29.72,28.92,27.1,4.31-.67,29.21-13.36,29.17-18.96-.08-9.82-11.74-10.12-15.19-12.85-6.77-5.37-6.1-49.06-6.84-59.16-.69-9.42-3.61-20.56-4.09-29.96-.53-10.39,3.11-20.08.15-31.01l17.95-2.02-8.03,9.09c3.36,11.62.43,25.1,1.94,35.99,2.41,17.38,8.19,43.34,13.03,60.97,3.66,13.34,9.24,28.32,25.96,28,2.82-.06,15.8-2.68,17.8-3.91,9.49-5.81-1.93-23.25-2.66-29.36-.61-5.13,2.14-9.17.72-14.38-1.77-6.5-9.01-10.44-11.59-16.58-3.69-8.76-14.67-63.47-10.83-69.53.38-.6,11.6-6.03,12.75-6.24,26.26-4.84,59.28-2.23,85.36-8.64,1.83-.45,3.36-2.03,4.59-3.41,1.36-.58.66,1.95,1.81,3.13Z"/><path class="cls-5" d="M208.13,631.99c6.26,6.77,10.93,7.59,20,8,9.93,3.93,31.62,12.69,38.05,20.95,4.74,6.09,13.31,39.24,16.98,41.03,4.19,2.04,6.66-15.35,14.97-11.98,3.44-4.26,8.14.33,10.22,4.24,6.18,11.61,2.02,58.18-12.22,65.76-22.39,10.41-30.77,13.99-57.09,16.08-17.28,1.38-64.82.58-80.29-5.7-18.54-7.53-33.48-21.79-43.45-38.55-12-20.17-10.42-60.52,10.81-73.83,1.97,6.01-2.45,14.21-2,18.97.55,5.81,8.81,6.31,8.24,16.05-.47,8.11-6.91,5.41-6.31,9.89.49,3.67,4.34,5.99,5.21,8.97,1.34,4.63.42,9.07,2.01,13.99.86,2.66,12.62,23.91,14.82,22.14-.32-7.67,8.93-3.79,8.05-8.95-11.49-16.14-11.19-26.61-12.01-45.05,1.44-1.85,1.44-3.85,0-6-.17-10.38-3.2-37.05,4.9-44.1,1.86-1.62,18.8-6.58,22.57-7.43,6.81-1.54,30.48-5.31,36.53-4.47Z"/><path class="cls-7" d="M66.13,871.99c-5.8,15.53-24.31,25.43-23.99,43.99,13.23-4.21,28.71,4.54,33.8,17.19,2.22,5.53,1.43,12.24,4.04,15.96,1.82,2.59,11.58,7.67,15.05,8.95,17.9,6.59,74.94,14.86,94.07,13.88,12.75-.65,27.36-5.1,40.05-5.95,34.01-2.29,56.08,4.55,87.99,7.96,22.42,2.4,45.41,1.01,67.73,4.27,7.3,1.07,17.48,1.1,21.26,7.74,5.47,1.08,5.6,8.97,0,10v2c6.9,2.76,8.19,30.61,3.82,34.19-3.07,2.52-52.02,1.57-58.62.34-38.94-5.53-77.79-10.72-116.54-15.58-8.63,1.94-16.18,1.62-22.65-.94-1.67,2.1-1.01,4.77,2,8-1.46,4.89-5.35,3.61-8.96,4.05-8.91,1.09-12.22,1.31-21.04,3.95-.4,5.45-2.08,5.05-4,0l-20-4c-.19-3.58-1.49-6.54-2-9.99,3.33-.56,13.65-.94,15.59-2.41,1.29-.97,1.93-6.82,3.55-9.47,2.93-4.8,10.93-8.27,5.69-16.36-3.51-2.52-22.59-2.48-27.41-1.36s-8.04,6.48-10.33,6.78c-2.44.31-5.65-2-9.65-.9s-8.81,10.53-14.16,9.41c-2.18-.46-3.84-4.46-6.68-5.32-5.84-1.76-17.03-.02-23.27-2.77-3.23-1.42-2.94-4.89-3.57-5.35-.59-.42-4.88,2.46-8.32,1.49-2.41-.68-3.92-4.32-6.88-5.32-10.49-3.55-11.73-.58-22.58-9.42-15.76-12.83-19.29-26.19-18.06-46.11,1.82-29.46,11.86-41.73,34.08-58.92Z"/><path class="cls-8" d="M1862.75,455.38c-1.7-1.79-1.99-5.16-3.69-7.27-3.97-4.95-10.88-8.95-10.92-16.11,1.18-1.08,17.23,6.69,21.49-9.5,2.95-11.23-5.02-16.45,5.58-28.43,1.47-1.66,28.17-21.75,30.01-22.08,6.17-1.11,11.1,2.26,15.82,1.94,3.43-.23,6.42-3.26,10.19-3.83,21.21-3.17,31.09,7.94,47.02,14.76,9.7,4.16,32.62,7.95,37.35,18.65,5.37,12.16,5.84,26.42,2.08,39.02-.87,2.91-4.7,4.47-5.12,6.67s1.79,6.55,1.19,11.24c-.22,1.76-9.31,30.61-10.07,32.11-2.14,4.24-8.35,6.05-12.76,7.4-18.37-4.89-36.97-9.31-55.24-14.54-5.82-1.67-11.29-5.17-17.05-6.95-19.82-6.12-39.58-5.89-55.9-23.09Z"/><path class="cls-8" d="M1796.13,671.99l5.71,3.29c-2.79,13.55,6.57,24.02,8.12,35.88,1.39,10.62,1.82,35.25.08,45.74-.86,5.18-5.01,7.82-5.55,10.54-1.42,7.25,3.2,14-6.27,23.64,1.81,16.57-6.83,31.22-11.22,46.77-2.77,7.27-18.64.97-24.3-1.43-7.03-2.98-11.56-8.03-17.17-10.83-17.43-8.69-37.36-5.76-56-10-10.35-8.51,1.36-12.36,5.05-18.15,11.29-17.71,22.57-53.51,33.44-74.56,5.29-10.25,16.5-18.43,14.14-32.86,14.47,2.79,35.68-28.96,48.71-26.19l3.26,8.16c-.44,6.12.22,6.12,2,0Z"/><path class="cls-2" d="M1874.13,287.99c16.92-20.48,51.99-33.57,76.41-42.59,8.14-3.01,15.91-11.18,26.41-9.55,2.73.74,4.77,19.29,5.71,22.62,1.32,4.65,8.57,9.16,4.54,15.56-26.77,15.02-58.07,22.95-85.16,36.88-4.19,2.15-38.38,20.61-31.9,27.08,23.76-7.56,44.47-23.19,67.27-33.7,10.44-4.81,21.43-7.84,32.13-11.87,8.6-3.24,15.17-11.22,26.57-8.4l-5.99,7.97c6.88-.35,16.28,1.87,13.72,10.63-1.28,4.38-47.58,26.72-56.42,33.69-10.99,8.67-6.24,12.29-24.55,15.44-18.99,3.27-26.18-1.69-44.63,11.39-7,4.96-14.43,15.45-23.16,18.85-4.4,1.71-2.57-2.44-2.43-4.5,1.5-22.21,5.96-42.99,11.46-65.47,2.71-8.35,6.05-16.35,10-24Z"/><path class="cls-2" d="M2173.42,433.35c-8.04,12.79-29.35,2.7-40.65-3.01-3.57-1.8-29.77-17.9-30.38-19.61-6.68-18.83,19.59-17.45,15.72-34.73l-11.98,2-1.73-51.72c2.8-4.51,37.94.36,39.72-13.26-13.78-12.72-30.12-2.92-46.1-7.92-4.69-3.19-4.41-35.58-5.88-43.09,1.87-1.97,17.72,8.42,20.64,10.34,23.56,15.5,28.29,22.43,40.22,47.78,10.6,22.53,20.42,52.86,23.09,78.9.96,9.38,2.39,26.28-2.67,34.33Z"/><path class="cls-2" d="M758.13,369.99c.7-1.07,11.45-10.37,13.33-11.67,13.94-9.67,35.78-21.05,48.47-31.53,8.36-6.91,14.88-21.92,27.43-24.6,6.42-1.37-.12,8.25,1.65,11.8,7.28,7.63,18.58,6.12,28.1,5.97,18.87-.29,39.1-.85,58.07-.01,9.42.41,7.22,9.4,3.03,15.13-2.14,2.93-12.86,7.92-13.66,9.32-2.14,3.75,1.87,13.82-2.38,16.75-5.46-1.38-10.49.8-15.05.83-29.62.17-61-.49-90.02,2.4-18.74,1.87-31.78,3.57-44.93,18.73l7.94,10.88c-11.29-1.86-19.06-11.65-22-22-1.73-.61-1.71-1.28,0-2Z"/><path class="cls-8" d="M758.13,369.99c-.29.44.25,1.4,0,2-2.86,6.75-1.72,9.07-2,16l-10.97-13.33c-3.49.79-6.57,2.75-10.21,3.17-14.36,1.67-66.11,7.47-76.35,2.68-8.93-4.18-2.3-14.39-2.31-21.53,0-11.86-5.32-12.09,2.19-25.64,1.28-2.3,14.59-19.66,15.69-20.31s20.47-8.04,23.14-8.87c28.29-8.81,22.45,5.64,35.75,13.87,3.94,2.44,10.71,2.35,13.13,4.87,3.56,3.72.34,11.69,11.13,12.97-2.16,8.23-.07,17.76-7,23.37l7.81,10.72Z"/><path class="cls-8" d="M2271.72,835.6c-.55.93-4.24,1.38-5.65,3.25-2.17,2.87-1.88,6.85-4.95,9.13-2-15.41,9.74-31.82,14.48-45.52,3.71-10.72,4.39-21.12,6.64-31.36,2.48-11.3,13.61-32.93-2.17-40.13-6.22-2.83-27.84,8.19-29.61,14.48-1.3,4.59,2.3,19.87,1.16,29.03-2.16,17.37-11.99,31.5-16.61,47.38-1.09,3.75-4.03,26.97-5,28-.46.48-12.16,3.4-12.83,3.36-2.3-.12-9.5-5.99-15.03-3.25-.24-6.41,6.97-5.39,10.95-10.03,2.84-3.31,7-14.49,7.06-18.94.26-20.49-9.48-68.39-14.45-89.59-1.49-6.34-11.25-13.09-2.56-21.42,6.61,22.65,12.95,10.12,28.21,8.21,5.34-.67,14.57-.91,19.82-.27,8.22,1.01,14.52,8.35,19.77,8.07,6.3-.34,24.64-15.73,27.03-6.77.44,1.63-3.29,29.62-4,33.58-4.45,24.54-14.81,46.4-21.44,68.55-1.33,4.44.85,11.44-.81,14.22Z"/><path class="cls-1" d="M1020.12,1136.01c.63,3.66-3.63,1.1-5.53,2.34-4.85,3.17-.48,31.43-4.49,38.67,7.86,34.41,9.39,71.12,28.03,101.97l13.98,12.99c-12.2-1.44-34.13-4.95-41.68-15.3-12.27-16.8-13.84-37.8-19.67-56.33-6.94-22.05-17.15-44.39-20.08-67.91-.59-4.72-1.17-9.51-.33-14.24,16.36-2.49,33.36-6.45,49.76-2.2Z"/><path class="cls-8" d="M1818.13,861.99c.48-7.43.33-19.3,10.01-18.03-3.51-8.66,1.32-16.68,3.48-25.48.93-3.8-.27-8.08.47-11.08.53-2.15,4.82-1.93,5.74-4.64,3.18-9.26-5.64-23.04,14.28-20.79l-4-3.15c2.58-7.2-1.09-14.4-.13-21.94.45-3.54,3.23-2.8,3.99-4.47,1.97-4.31,2.77-57.25,2.07-65.17-1.01-11.32-15.57-33.74-18.98-45.2-.68-2.29-1.27-4.49-1.07-6.92,5.97-3.2,13.25-4.37,19.62-1.62,6.99,3.03,11.53,13.78,14.52,15.49,4.76,2.73,11.96-2.39,11.97,8.21,0,4.43-3.06,5.99-3.38,8.12-1.91,12.5-.29,34.47-2.75,49.51-.82,5.04-7.24,19.97-7.09,22.11.12,1.67,3.21,3.55,3.2,7.75-.02,7.77-5.95,14.09-7.78,20.47-2.98,10.39-.59,20.53-2.6,29.4-1.19,5.24-6.46,7.74-7.29,10.88-1.97,7.4,7.88,14.39-4.5,15.7l-12,31.79c-3.13,5.1-8.11-4.66-3.81,11.04-3.23-.26-6.85.42-9.99.01-2.07,3.79-3.01,1.72-4-2Z"/><path class="cls-8" d="M2102.14,849.98c-2.14-1.86,8.28-12.79,9.52-15.46,2.69-5.79,2.52-12.65,5.62-18.38,7.43-13.74,23.72-27.72,32.9-39.1,6.72-8.33,8.62-20.1,16.95-27.01l12.59,59.54-2.52,34.48c-3.83,5.98-64.12,4.87-75.06,5.92Z"/><path class="cls-7" d="M318.13,745.99c-6.1,3.64-8.19-1.55-9.52-7.18l2.14-28.45c3.2-22.4-2.34-40.52-16.62-54.37-.81-2.6-1.31-5.35-2-8-7.54-9.86-15.52-32.84,2-32,21.06,21.08,58.53,43.82,51.02,78.03-2.85,12.99-18.66,41.32-27.02,51.97Z"/><path class="cls-1" d="M1078.13,1130.01c-1.39,5.17-8.16,2.71-10.99,5.98-5.53,6.38.34,22.94.97,31.03,1.39,17.88,1.47,38.23,4.17,55.83,1.44,9.39,6.31,20.56,7.68,30.34.43,3.05,1.4,5.56-2.86,4.84-16.92-2.87-29.44-65.86-32.39-81.62-1.97-10.5-6.57-31.92-6.65-41.41-.03-4.18-.16-2.59,3-3.03,11.65-1.62,25.28-.26,37.07-1.96Z"/><path class="cls-3" d="M168.13,615.99c1.74-9.71,9.45-10.71,17.9-10.2l.22-5.6c10.19-1.21,15.78,5.63,26.76,3.69,5.07-.89,10.57-6.58,14.71-7.46,6.1-1.31,12.5,3.03,18.89-2.45,3.16-2.7,1.09-7.85,6.43-8.01,1.18-.04,20.46,6.97,22.15,7.99,4.9,2.93,13.12,16.23,18.94,22.06-11.74,6.36-4.5,22.36-2,32-7.74-9.48-16.32-20.04-28-25-3.32-1.41-7.62-.86-11.43-2.57-4.63-2.07-11.68-8.83-16.05-9.94-4.13-1.05-26.84-.49-31.6.3-2.43.4-3.67,4.26-6.14,4.75-6.01,1.18-17.6.47-26.77,2.46-3.84.91-5.17.25-4-2Z"/><path class="cls-2" d="M1880.14,267.98c-2.12-21.81,20.58-25.41,34.67-34.31,13.8-8.72,51.5-43.46,54.43-9.7l-11.74,8.38-77.36,35.62Z"/><path class="cls-7" d="M634.13,1145.99c4.27,2.46,3.05,5.63-2,6-.6,1.27.37,2.98-2,4.92-7.63,6.26-32.43,6.23-33.74,7.37-.63.55-.51,4.69-2.18,6.72-2.83,3.44-13.25,16.17-17.03,14.95-2.47-.79-15.67-38.31-15.07-43.97,23.74,2.07,48.44.61,72.01,4Z"/><path class="cls-2" d="M1950.13,196c5.23,5.48-24.91,12.53-27.38,13.6-5.4,2.32-31.24,17.68-34.6,14.39-2.12-15.93,5.29-30.27,6-46.02,4.71.22,9.45,1.35,13.77,3.23s14.23,11.01,16.11,11.7c2.36.87,7.02-1.57,10.87-.87,5.17.94,9.8,4.1,15.24,3.96Z"/><path class="cls-8" d="M2066.12,399.98c-3.38,3.93-12.79-17.59-14.92-20.06-3.21-3.71-7.53-5.72-11.07-8.99-.93-3.78,8.81-7.97,9.96-13.98,1.33-7-.29-17.81.2-25.79.23-3.79,3.21-7.47,3.37-10.52.26-5.1-7.43-14.13-1.5-22.64,9.39.03,4.77,10.98,6.08,16.89,1.64,7.38,6.1,15.31,7.66,24.34,3.58,20.67,1.82,40.08.23,60.75Z"/><path class="cls-2" d="M2002.12,319.98l14,42c-21.73-4.53-41.31-12.47-63.98-12-.17-4.07,2.89-8.69,6.1-10.88,4.49-3.07,32.63-16.64,37.81-18.2,2.06-.62,3.86-1.29,6.07-.93Z"/><path class="cls-2" d="M1160.12,274c.94,4.28-2.19,4.53-4.65,6.33-11.58,8.52-23.85,13.03-35.99,20.01-5.1,2.94-12.41,11.26-17.24,12.76-5.27,1.63-31.91,2.57-34.09-2.14-1.5-3.24,4.67-4.6,6.29-5.59,26.06-15.79,55.12-28.39,85.68-31.37Z"/><path class="cls-3" d="M294.13,655.99c33.54,15.19,14.82,51.12,17.96,79.03.51,4.59,1.37,8.77,6.04,10.97-11.79,15.03-7.14,7.09-22,14,7.5-17.66,17.78-43.46,9.47-62.46-1.97-4.5-7.34-7.03-7.47-7.54-.08-.32,2.13-3.5,1.62-6.5-.7-4.1-5.76-8.56-5.56-12.52.15-3.01,3.84-5.04,3.93-8.01s-3.4-5.05-3.99-6.97Z"/><path class="cls-2" d="M1196.13,288.01c2.78,2.71-29.39,20.91-31.8,23.17-4.26,4-10.92,17.38-15.62,18.54l-26.57-9.76c.16-15.49,9.53-2.85,16.87-3.88.96-.14,15.97-8.48,16.99-9.23,2.24-1.65,2.97-5.07,5.14-6.86,7.02-5.8,13.94-11.35,20.4-17.8l14.6,5.82Z"/><path class="cls-2" d="M1262.12,276c-3.44,9.64-12.49,16.87-20.6,22.38-8.79,5.97-37.36,22.65-35.01,1.95,17.84-10.54,34.01-22.46,55.61-24.33Z"/><path class="cls-3" d="M1338.13,1031.99c-35.36,8.87-53.15,10.7-90,12l90-12Z"/><path class="cls-8" d="M1810.12,888c2.52,5.46-12.65,19.2-15.98,15.98l1.56-5.7-3.62-1.28c-.33-6.65,12.91-8.79,18.04-8.99Z"/><path class="cls-2" d="M1344.13,901.99c1,.08,4.96,3.61,8,2-8.74,2.04-19.41,5.02-30,6-1.57-.11-2.41-.2-2-2,.83-.29,2.18-2.76,5.37-3.54,4.08-1,14.73-2.77,18.63-2.46Z"/><path class="cls-4" d="M1346.12,76c.22,11.01-11.77,9.91-20,9.98l.02-5.98c10.15,5.51,10.83-3.98,19.98-4Z"/><path class="cls-4" d="M1302.13,66c.97,6.05-1.52,3.19-4.87,4.04-4.88,1.23-10.06,2.17-15.13,1.94l1.23-6.15c6.08-2.57,12.38,1.17,18.77.17Z"/><path class="cls-1" d="M522.15,1159.99l-2.01-17.99c12.48,3.03,11.34,11.49,2.01,17.99Z"/><path class="cls-3" d="M228.13,639.99l-15.98,4-4.02-12c4.27.59,14.89,5.98,20,8Z"/><path class="cls-8" d="M1864.13,311.99c1.36-5.56,1.21-12.2,3.53-17.49,1.81-4.11,4.84-4.54,6.47-6.51-1.22,7.88-4.02,18.89-10,24Z"/><path class="cls-2" d="M1822.13,863.99c2.89,3.96,1.14,8.89.06,13.13-.85,3.36,1.97,5.84-4.05,4.86,1.73-6.71-.44-13.27,0-19.99,1.28.4,2.88,1.85,4,2Z"/><path class="cls-4" d="M1584.11,1321.98c-3.04-.65-5.08-8.97-5.51-11.46-.7-4.17-.6-8.34-.45-12.53,6.46,4.34,4.01,16.98,5.96,23.99Z"/><path class="cls-4" d="M546.13,1215.99l-2,2c-3.05-7.41-5.41-10.94-8-20,.57-1.75,1.24-1.72,2,0,1.98,6.11,5.15,12.24,8,18Z"/><path class="cls-8" d="M932.13,173.99c-.75,5.5-3.76,11.65-10,12,.68-1.68-.27-3.86,1.86-7.08,2.66-4.03,6.36-3.55,8.14-4.92Z"/><path class="cls-4" d="M1304.14,71.97c-2.67-3.72,6.69-9.63,9.98-2.96,1.06,6.05-8.71,4.72-9.98,2.96Z"/><path class="cls-4" d="M1796.13,671.99c1.5,7.4-4.48,12.67-9.98,16l7.98-16h2Z"/><path class="cls-8" d="M168.13,615.99c.61.07,2.5,2.17,4,2-5.27,1.14-13.22,8.77-13.99-1.99,3.25.24,6.8-.39,9.99-.01Z"/><path class="cls-8" d="M1848.12,384c3.6,3.99-4.86,10.52-9.98,7.98-3.37-2.68,8.88-9.19,9.98-7.98Z"/><path class="cls-1" d="M530.12,1165.98l1.99,16c-3.43-.95-10.64-17.82-1.99-16Z"/><path class="cls-1" d="M538.13,1197.99h-2c-1.31-4.57-4.61-8.82-3.98-14,8.03,2.42,4.69,10.02,5.98,14Z"/><path class="cls-8" d="M1012.13,91.99c.51-.93,1.19-.85,2,0v2c-3.47.82-9.93,6.08-12,2,4.23-3.08,3.98-3.66,10-4Z"/><path class="cls-8" d="M866.13,255.99c4.21-5.16,8.23-10.42,14-14-3.44,4.04-5.34,12.48-14,14Z"/><path class="cls-3" d="M346.12,740v5.98c-3.8.3-7.59.38-9.98-3l9.98-2.98Z"/><polygon class="cls-4" points="1362.12 78.02 1362.12 81.98 1354.14 81.98 1354.14 76 1362.12 78.02"/><path class="cls-8" d="M1808.12,71.98h-2.96c-9.01-9.61,3.68-12.1,2.96,0Z"/><path class="cls-8" d="M634.13,1145.99c3.86.56,6.62,1.46,5.99,5.99h-7.99c.76-1.59.59-4.31,2-5.99Z"/><path class="cls-1" d="M166.12,606c1.01.89-.46,3.76-1.98,5-7.05,5.74-4.44-10.66,1.98-5Z"/><path class="cls-7" d="M144.13,687.99c7.55.91,9.33,7.6,0,6-.09-1.99.03-4,0-6Z"/><path class="cls-2" d="M30.13,971.97c-3.73.2-8.8.59-10-3.96,3.73-.2,8.8-.59,10,3.96Z"/><path class="cls-1" d="M204.13,597.97c-.58-.61,6.26-11.02,9.96-9l-9.96,9Z"/><path class="cls-8" d="M750.12,286v3.98c-3.69.48-5.82.08-7.98-3l7.98-.98Z"/><rect class="cls-2" x="1644.14" y="834" width="5.98" height="3.98"/><rect class="cls-1" x="1504.14" y="1428.01" width="3.98" height="1.96"/><path class="cls-1" d="M533.13,1145.99c1.3.67,1.3,1.33,0,2v-2Z"/><path class="cls-2" d="M1014.13,91.99c-.67.03-1.34-.04-2,0l1-1.96,1,1.96Z"/><path class="cls-8" d="M1352.13,1740.01c-2.7,8.14-8.65,3.57-13.48,5.29-2.26.8-2.37,3.92-5.04,5.25-5.15,2.57-11.71,3.78-17.48,3.42,1.67-5.52,7.79-2.95,11.47-4.56.31-.14,1.09-2.95,4.33-4.54,6.79-3.33,12.17-6.18,20.19-4.86Z"/><polygon class="cls-8" points="620.12 1864 614.81 1871.67 592.14 1881.98 597.82 1874.68 620.12 1864"/><path class="cls-8" d="M1060.12,1742l-10.63,8.36-27.36,9.61c8.73-11.22,25.91-11.44,37.99-17.97Z"/><path class="cls-8" d="M568.13,1893.99c1.5-4.46,20.16-13.69,21.99-11.99-1.37,8.91-13.81,8.6-19.99,13.99-2.88,2.76-3.97,1.57-2-2Z"/><path class="cls-8" d="M1018.12,1760c.8,4.76-.48,3.81-3.96,4.92-6.37,2.04-13.34,4.27-20.02,5.06l4.31-4.58,19.67-5.4Z"/><path class="cls-3" d="M568.13,1893.99c.35.04,1.22,1.65,2,2-.31.27,1.09,3.72-1.25,4.15l-18.75-.16c2.68-5.48,12.67-6.57,18-5.98Z"/><path class="cls-8" d="M938.13,1859.99c.71-.33,14.78-11.36,13.96-3-.11,1.12-10.07,5.69-11.96,7l-2-4Z"/><path class="cls-8" d="M1294.12,1654.01l-16.01,5.08-7.97-2.11c8.99-3.35,14.27-5.78,23.98-2.97Z"/><path class="cls-7" d="M538.12,1908c1.72,4.75-10.48,11.67-11.98,9.98l.14-7.84,11.83-2.14Z"/><path class="cls-3" d="M1412.12,1702.01c-2.7,5.66-12.87,3.65-17.99,3.96,2.97-6.63,12.32-3.34,17.99-3.96Z"/><path class="cls-3" d="M1454.13,1647.99c2.57-.11,15.98-.7,16.02,1-4.79,2.73-10.7,3.49-16.02,5v-6Z"/><path class="cls-3" d="M722.12,1814c1.46,6.38-7.87,5.7-11.99,5.97,1.97-5.11,6.7-6.78,11.99-5.97Z"/><path class="cls-3" d="M550.12,1907.98c-1.33,1.24-7.93-.93-7.95-2.99-.06-5.96,11.76-.56,7.95,2.99Z"/><path class="cls-8" d="M838.12,1920c2.05,2.07-3.97,8.02-5.98,5.98s3.97-8.02,5.98-5.98Z"/><polygon class="cls-2" points="856.13 1910.01 853.1 1913.97 850.14 1913.98 850.14 1910 856.13 1910.01"/><path class="cls-3" d="M1614.12,1745.98l-35.98,4c-.86-5.13.74-3.63,4.31-4.57,5-1.32,9.45-1.02,14.2-1.9,5.54-1.02,15.9-9.47,17.47,2.47Z"/><path class="cls-3" d="M1532.13,1788.01c-1.2,4.52-6.25,4.27-9.99,3.96-2.47-1.16,7.21-4.98,9.99-3.96Z"/><path class="cls-3" d="M1626.12,1736v3.98s-7.99,0-7.99,0c1.07-3.98,4.26-4.49,7.99-3.97Z"/><path class="cls-6" d="M826.13,1005.99c-2.46,4.64-2.53,9.93-2.03,15.01.28,2.82,4.47,23.86,5.01,25.01,4.97,10.47,38.74-6.33,23.02,19.98-8.59.51-26.57,3.63-34.89,6.11-5.22,1.56-14.77,7.92-18.17,7.85-4.67-.1-8.57-8.43-13.45-10.44-8.93-3.67-12.83.12-20.5.46-54.54,2.41-111.36,3.12-165.98,5.63-3.01.14-6.39-2.15-9.92-1.7-4.45.57-5.77,5.71-9.93,5.94-2.53.14-6.43-1.91-10.08-1.96-17.16-.23-33.75-1.23-50.29-1.7-13.3-.38-29.96,5.2-43.82,3.76l-3.98,2.02c-1.93,3.69-4.94,15.35-7.52,17.49-1.56,1.29-17.71,6.51-20.43,6.53-6.92.06-24.97-5.18-28.01-12.03-2.43-8.56-2.27-47.58-9.48-50.64-3.64-1.55-8.61-1.62-12.58-1.47-30.05,1.16-47.63,2.54-78,.16-20.67-1.61-35.48-3.13-55.49-6.5-6.98-1.17-19.49-9.05-24.61-9.54-8.82-.84-7.76,9.28-18.86-1.99-8.73-1.27-10.06-3.93-4-8,36-8.98,66.89,3.94,102.53,8.46,22.13,2.8,51.79,6.21,74.36,5.62,6.33-.17,11.7-4,19.1-.08,1.36-10.85-1.62-21.34-1.99-31.99v-2c-.04-3.21-.32-6.92,0-10,1-9.67,4.05-11.4,14.03-14.99,2.29-.82,31.19-7.07,32.98-7.15,9.78-.46,30.62,7.73,42.3,8,21.36.48,42,1.95,63.77,2.06,85.03.42,167.97-8.42,253.99-4,3.04.16,18.13.83,19.04,1.16s15.46,11.32,15.7,12.29c.17,10.97-18.01,15.48-21.82,22.64Z"/><path class="cls-7" d="M1304.13,959.99c3.26,2.46-.04,3.63-2.96,4-6.81.88-14.89-.56-22.02.02-27,2.18-53.61,6.16-81.01,3.96-.18-2.94,7.17-3.52,9.23-3.74,5.99-.63,24.43-4.24,25.76-4.24h71Z"/><path class="cls-8" d="M1320.13,907.99l2,2c-4.24.39-7.83,1.94-12,1.98,1.04-5.41,7.26-3.01,10-3.98Z"/><path class="cls-8" d="M1434.12,903.98c-2.07,2.05-8.02-3.97-5.98-5.98s8.02,3.97,5.98,5.98Z"/><path class="cls-5" d="M1190.13,625.99c12.93-.19,25.6,1.14,38,4,4.49.5,7.71,1.18,12,2,13.69,5.36,27.02,11.36,40,18,13.56,6.24,29.26,21.42,36.49,34.54,1.57,2.84.87,7.99,1.84,9.12.43.51,9.01,1.89,12.68,4.33,7.88,5.24,5.79,13.37,13.09,17.27.66,5.5-17.11,40.62-21.34,46.51-13.47,18.77-55.57,30.01-78.03,31.97-29.58,2.58-63.82,4.16-90.14-9.34-5.38-2.76-9.01-9.67-12.67-11.33-4.45-2.02-13.91.31-11.65-7.76.88-3.14,6.21-5.06,7.33-8.73,3.33-10.89-5.44-17.76-15.37-18.81-4.35-8.93,4.99-10.8,5.5-12.88.86-3.48-3.53-25.01-3.38-27.55.64-10.63,18.15-37.72,19.58-48.53,2.52-19.06-20.78-13.64-23.5-5.37-2.35,7.13-1.26,17.99-2.88,25.12-3.25,14.26-4.04,14.85-5.72,30.26-.81,7.39-5.01,13.91-4,22.24,1.34,11,4.65,2.55.16,14.94-.57,1.75-1.24,1.72-2,0-1.74-6.85-12.19-12.89-12.05-16.97.1-2.83,3.98-4.9,3.72-7.69-1.5-16.09-1.26-16.19.4-32.28,1.17-11.36-3.87-13.95,3.07-24.93,18.27-28.9,58.24-29.96,88.85-28.13Z"/><path class="cls-3" d="M1328.12,637.98c-8.54,2.79-12.3-9.51-13.31-10.04-6.04-3.19-33.52-7.18-23.64-17.94l8.94,4,.03-19.99c9.05-.63,15.4,17.29,17.93,19.18,2,1.49,8.47-3.23,9.98,1.94,1.6,5.47-3.84,8.56-3.58,11.53s5.12,6.92,3.65,11.33Z"/><path class="cls-3" d="M1280.13,649.99c-12.51-5.76-30.87-7.15-40-18,12.67,2.43,31.63,7.89,40,18Z"/><path class="cls-2" d="M1246.13,593.99c3.91,1.54,4.17,2.93,0,4-9.85-3.35-16.93-3.45-27.02-4-2.68-.15-8.34,1.7-6.99-2.98,1.23-4.26,29.23,1.61,34.01,2.98Z"/><path class="cls-3" d="M1228.13,629.99c-10.95-1.23-27.74-3.39-38-4l28.82.18,9.18,3.82Z"/><path class="cls-8" d="M1246.13,593.99c7.94,2.28,15.89,3.71,20,11.98-7.88.14-12.84-5.55-20-7.98v-4Z"/><path class="cls-8" d="M1206.13,595.97l-21.99,2.01c.17-8.88,6.1-4.11,10.77-4.2,3.92-.08,8.91-4.56,11.22,2.19Z"/><path class="cls-1" d="M1108.13,735.99c-1.35,3.74,10.48,18.04-.99,16.01,1.54-6.27-1.65-8.19-2.56-12.62-.25-1.21,1.65-2.99,1.55-3.39h2Z"/><path class="cls-3" d="M624.13,639.99c4.91-16.82,6.39-15.62,14.88-28.12,17.78-26.21,45.56-46.26,77.05-54.93,4.46-1.23,9.23-1.64,13.76-.61,6.37,10.89,8.33,14.84-3.57,22.79-5.4,3.61-29.45,11.1-31.61,13.41-4.24,4.53-9.33,14.5-12.55,18.43-.5.6-10.81,9.03-12.11,9.88-2.7,1.77-9.57,2.76-9.87,3.18-.7.98,1.99,4.97,1.78,7.04-.49,4.76-5.1,9.23-3.78,14.95l-9.99-1.99c2.2,4.8,6.5,7.95,11.82,8.15,1.03,6.23-3,9.48-3.82,15.83,2.29,5.6,4,11.43,5.13,17.5,22.33.44,23.81,4.24,13.74,23.55-23.22,8.3-30.12-7.27-36.31-25.73-3.76-11.19-6.04-22.89-7.61-34.6-3.21-2.95-5.53-5.86-6.95-8.72Z"/><path class="cls-7" d="M624.13,639.99c14.53,1.63,10.63,13.54,13.31,23.69,1.65,6.25,8.61,32.63,11.28,35.74,4.19,4.9,22.95,14.23,25.32,3.47,1.56-7.11,1.7-6.33,4.07-11.94,3.09-7.29-18.41,2.74-20.16-3.79-2.64-3.43-2.41-14.57-1.81-19.18,5.94,2.57,5.74,11.63,10.1,14.9s11.25,2.02,15.81,4.19c2.96,1.41,14.8,10.71,15.08,13.79.62,6.92-5.78,17.53-12.2,18.68-2.45.44-6.06-2.05-9.63-1.59-5.12.66-14.19,6.1-22.28,5.77-5.23-.21-12.93-8.42-21.02-6.6-2.79-1.77-1.43-9.46-2.77-13.23-1.74-4.92-7.63-10.77-8.14-16.83-.77-9.27.65-38.86,3.05-47.07Z"/><path class="cls-8" d="M618.12,653.98c-2.07,2.05-8.02-3.97-5.98-5.98s8.02,3.97,5.98,5.98Z"/><rect class="cls-8" x="604.14" y="672" width="3.98" height="5.98"/><polygon class="cls-2" points="622.12 621.98 618.14 621.98 618.15 619.02 621.14 616 622.12 621.98"/><path class="cls-5" d="M1604.13,649.99l8-4c2.34-.56,1.86-3.13,7.41-.55,10.26,4.76,10.95,21.64,18.69,29.64.32,3.11-1.27,6.52-4.1,7.91-18.33,8.97-45.62-16.7-30-33Z"/><path class="cls-3" d="M1612.13,645.99c-1.04,3.67-4.51,4.34-8,4,.63-.66.78-2.16,2.13-2.95,2.21-1.29,4.09-.63,5.87-1.05Z"/><polygon class="cls-2" points="1652.11 658.01 1652.12 659.97 1644.14 659.98 1644.14 656 1652.11 658.01"/><path class="cls-8" d="M814.14,497.98v-3.97s5.97-2.02,5.97-2.02c.68,3.65-2.19,6.63-5.97,5.99Z"/><path class="cls-6" d="M1605.13,171.99c-17.84,2.53-87.6,30-107.53,38.47-16.26,6.91-30.85,19.8-49.46,19.52l5.01-11.95-23.01,11.95,3.98-13.98c-27.73,6.27-10.34-19.77,3.89-27.13,27.63-14.3,63.23-20.28,92.59-29.41,35.34-10.98,108.16-41.27,142.8-27.64,2.84,1.12,5.85-1.94,4.72,4.17-2.99-.22-5.64-2.06-8.76-1.82-29.74,2.31-59.56,5.76-87.22,15.85,3.23,6.97,15.88.4,23.03.01,9.93-.53,20.22.71,30.05.05,13.52-.91,44.91-11.12,52.7,3.13,6.07,11.1-3.37,13.53,17.35,16.65l.56,9.85c-9.87,1.71-11.79,10.47-18.73,16.24-9.26,7.7-13.83,5.64-22.99,9.01-9.13,3.36-4.18,8.6-6.98,15.02-1.97,4.51-11.61,7.01-12.76,11.4l3.66,12.44c-7.75.32-6.76,9.14-11.02,12.04-6.46,4.39-16.09.72-22.63,13.37-2.24,4.32-1.74,8.48-3.4,12.6-1.39,3.45-6.11,7.67-6.4,11.5-.37,4.82,7.7,10.84,1.58,17.68-.71.79-17.64,8.69-19.19,8.94-8.12,1.29-10.59-4.72-17.29-3.66-6.04.95-12.84,8.58-18.74,11.49-3.93,1.94-8.46,2.01-12.19,3.81-9.94,4.81-20.64,15.92-32.64,11.36.86-3.77,2.16-8.28,4.94-11.06,12.47-12.46,51.19-19.7,67.01-32.99,12.02-10.1,1.92-17.35-8.99-13.12-5.78,2.24-11.67,5.17-18.38,7.76-32.7,12.62-64.3,29.06-95.85,44.21-6.57.62-5.93-11.55-1.82-13.89l151.87-61.73,1.25-6.13c-3.19-3.25-37.97,8.46-44.28,10.71-27.18,9.68-52.2,23.93-78.37,35.63-6.6,2.95-27.34,12.82-32.73,13.35-7.24.7-4.45-10.39-1.56-13.64,1.88-2.12,45.4-18.87,52.41-21.58,28.33-10.95,59.55-19.1,86.99-33.01,7.51-3.81,15.9-9.11,21.53-15.45-21.16,6.54-44.9,10.04-65.57,17.41-19.46,6.94-39.65,17.69-59.05,24.95-6.17,2.31-23.38,9.17-28.57,9.51-10.21.67-10.85-12.53-22.82-9.9-1.73-8.88,10.91-6.71,7.99-18l-3.97,2.03c-1.8-11.98,10.09-14.74,18.92-18.08,15.22-5.75,35.45-13.63,51.01-16.99,6.47-1.4,22.54-6.6,22.06,3.05-5.18-.49-9.07.66-11.98,5.04l2.94,2.94,19.44-8.17c14.22-11.38,42.29-9.76,57.61-18.79.98-.58,3.34-2.93.97-3.03l-23.9,4.1-21.06-2.05c8.05-2.08,15.53-7.15,23.45-9.56,8.67-2.64,24.61-8.24,31.99-10.01,5.38-1.3,30.86-2.04,32.5-7.5,1.07-1.99-1.32-6.94-2.95-6.94-10.13,0-24.63-1.33-34,0Z"/><path class="cls-6" d="M1643.85,327.64l-7.72,6.33,33.99,4.04c-6.8,7.08-13.9,1.66-12.3,15.64-5.93,5.59-11.63-1.73-14.35-1.37-6.38.83-30.33,24.27-33.11,3.12,5.82-12.57,14.14-11.5,23.75-18.43-28-4.22-50.63,20.12-77.98,21-.28-2.91,1.13-6.33,3.43-8.09,7.21-5.51,26.56-11.99,36.29-17.17,14.01-7.46,25.79-20.5,43.01-20.59l4.98,15.51Z"/><path class="cls-6" d="M2221.32,1145.24c-6.48,14.31-7.71,34.34-20.24,44.77-1.39,1.16-3.1,2.05-4.96,2.01,10.04,10.92-4.27,12.98-8.92,18.03-2.79,3.03-3.39,9.24-5.6,11.42-5.1,5.03-27.32,23.63-33.55,27.45-4.78,2.94-16.36,4.57-19.05,9.1-2.07,3.49,1.89,7.26.26,9.96-1.16,1.92-5.99,2.67-8.06,6.08-1.71,2.81-4.65,19.93-4.5,23.36s2.66,5.49,2.96,8.01c.39,3.3-2.63,18.13,6.29,12.43,1.65-1.05.08-10.11,6.14-7.89l2.04,10.98-8.02-.96c3.86,7.56,6.73,20.89,2.1,28.61-1.07,1.79-18.19,12.19-21.3,13.19-18.36,5.93-31.58-4.52-38.67-20.8,7.21-16.4,12.67-33.53,16.94-50.92,11.14-45.33,12.59-89.53,28.48-133.52,1.07-2.95-.24-7.24,1.41-10.61,1.43-2.91,6.51-3.06,7.08-5.35,1.23-5.02-.88-12.78.41-19.15,7.84-38.81,47.35-85.27,69.16-118.84,5.71-8.79,7.16-22.03,19.32-22.37,2.95-.08,18.85,4.37,19.02,6.74-13.8,19.71-30.43,36.46-41.69,58.38-1.04,6.51,20.86,16.65,24.65,20.72,2.39,2.57,9.09,18,10.12,21.88,3.35,12.65,3.27,46.02-1.83,57.28Z"/><path class="cls-6" d="M1715.79,970.34c4.21,10.67,7.35,25.55,11.34,35.66,10.13,25.66,13.63,27.16,17.1,56.89.43,3.72,3.91,7,3.83,10.1-.08,2.86-12.34,28.49-14.85,33.07-13.37,24.39-35.22,45.83-54.83,65.28-1.32,3.82,4.45,26.25,6.29,31.12,1.08,2.87,3.8,4.39,5.02,6.98,4.62,9.85,6.01,23.55,20.47,19.39,3.96,2.28,5.58,15.55,3.05,19.24-.66.95-18.23,11.62-19.98,11.67-4.6.15-12.14-3.59-17.04-4.8-2.99-.73-5.92,1.12-9.44-.38-1.43-.61-16.51-15.65-17.11-17.06-1.58-3.71-2.79-14.07-3.29-18.73-.99-9.27.62-17.85-2.72-29.25-2.28-7.79-10.35-19.28-11.39-24.61-11.31-58.11,9.53-147.74,30.91-202.91,5.22-13.47,16.22-29.49,28.01-37.98,7.97-5.74,8.48-3.5,16.11,1.95l.71,2.71c-11.19,20.05-24.72,36.42,7.84,41.66Z"/><rect class="cls-4" x="1754.12" y="894" width="10.02" height="5.98"/><path class="cls-6" d="M349.56,1308.4c17.8-4.04,20.58,23.1,26.18,34.98,9.5,20.14,19.91,40.32,32.06,57.94,4.73,6.86,23.56,30.14,25.25,34.76,5.49,14.96-15.99,20.78-27.05,19.06-12.31-1.91-30.82-22.3-37.52-32.5-13.86-21.08-14.35-43.65-29.99-60.01-.08-9.9-10.18-19.04-10.52-27.7-.29-7.39,14.34-24.88,21.59-26.53Z"/><path class="cls-4" d="M184.13,1031.99c.82,26.84-24.47,7.98-4,0,.96-.37,2.87.34,4,0Z"/><path class="cls-2" d="M212.13,1015.99c-1.38,5.46,1.49,5.46,4,8h-2c-4.41-4.04-7.1,1.29-11.08,1.92-5.96.94-12.6-.46-18.91,2.06,4.23-9.59,15.41-6.33,22.55-8.52,2.29-.7,4.29-3.18,5.45-3.47Z"/><path class="cls-3" d="M1464.1,985.98h-3.97c1.22-3.01,2.41-5.57,2.23-9s-7.44-11.78-1.2-12.98c7.85-1.51,4.86,18.06,2.94,21.98Z"/><path class="cls-6" d="M1280.08,1183.95c-3.34,1.18-8.36-2.22-10.78-1.65-3.19.75-5.31,14.07-14.08,3.6-7.04-8.41.63-15.68-.99-22.5-.47-1.99-5.99-2.4-7.09-7.15-.32-1.36.91-15.16,1.41-16.86,1.43-4.85,14.09-10.88,16.9-17.08,12.48-4.5,20.46,7.3,18.66,18.53-.46,2.86-3.31,4.72-3.45,7.72-.23,4.83,3.8,12.24,3.57,18.37s-4.24,11.04-4.15,17.01Z"/><path class="cls-6" d="M190.12,749.98l-20.12-14.84c-5.63-7.64.93-12.84,1.26-18.11.23-3.73-2.87-9.31-3.11-14.07-.29-5.7,1.41-35.66,7.24-37.08,3.41-.83,8.44-.18,10.7,3.1-8.36,9.71-4.41,25.13-4.14,36.21.09,3.89-2.04,7.3-1.76,11.56.38,5.94,12.7,29.98,9.94,33.22Z"/><path class="cls-6" d="M224.13,703.99c-.34,10.59,14.11,33.98,0,42,1.15,4.53-7.44,4.55-10,2,.4-5.73-6.94-7.72-7.55-11.22-.39-2.26,1.74-5.28,1.53-7.76-.59-7-4.48-13.63.5-20.55l13.52-4.47c.57-1.75,1.24-1.72,2,0Z"/><path class="cls-6" d="M269.1,704.78c3.93-.16,11.86,4.85,12.81,8.62,1.9,7.51-20.74,24.64-26.83,12.59-3.25-6.43,8.17-20.97,14.02-21.21Z"/><path class="cls-1" d="M224.13,703.99h-2c-1.75-6.67-12.11-18.8-1-22.02,9.62-.04,3.15,17.57,3,22.02Z"/><path class="cls-7" d="M224.13,745.99l4.01,5.99h-16c-.77-2.03,1.97-3.72,1.99-3.99,2.4-1.45,8.46-1.13,10-2Z"/><path class="cls-3" d="M406.13,997.99c-.03-.78,0-1.31,0-2v2Z"/><polygon class="cls-1" points="1926.13 407.97 1918.14 407 1923.1 404 1926.13 407.97"/><path class="cls-8" d="M1368.12,1658c2.05,2.07-3.97,8.02-5.98,5.98s3.97-8.02,5.98-5.98Z"/><path class="cls-8" d="M680.13,989.99c29.02-2.53,53.81.03,82.98,1.63,5.17.28,12.91-4.76,18.18.31-2.93,20.21-.53,40.38,3.94,60.09l-48.21,7.72c-27.12-10.16-55.89,3.03-84.02,2.47-6.65-.13-3.91-4.43-7.73-4.38-54.53.73-124.22,5.6-178.03-3.95-5.12-.91-10.55-6.96-17.11-5.9-4.8-5.17,14.69-7.74,17.03-7.95,30.67-2.8,63.54.71,93.99-.01,8.82-.21,19.73,1.03,28.02-.02,2.79-.35,5.74-1.04,2.96-3.97-13.32-4.62-30.49-5.54-44.99-6.16-11.98-.51-27.18-1.77-38.11-1.94-9.71-.15-24.04,3.69-33.99,4.14-8.22.37-16.33-3.34-25.57.06-6.96-9.9-7.96-22.45-7.34-34.15,28.95.62,57.93,3.38,87.09,2.09,36.96-1.63,73.8-8.24,110.92-8.08,13.3-1.9,26.64-2.57,40-2Z"/><path class="cls-3" d="M680.13,989.99c-16.09,1.4-23.04,2.07-40,2,12.74-2.43,27.48-5.95,40-2Z"/><path class="cls-6" d="M1180.2,742.06c-.48,20.28-10.82,3.47-13.52-5.62-4.09-13.79-4.49-38.68-4.75-53.22-.06-3.19-2.18-6.56-2-10.26.5-9.92,16.84-22.95,26.18-13.93,4.42,4.27,2.07,31.82,2.02,39.94-.02,3.29-2.25,6.66-1.95,9.93,1.01,11.01,26.1,34.29-5.98,33.17Z"/><path class="cls-6" d="M1248.13,683.98c-3.42,10.59.87,33.33-1.46,41.37-2,6.88-18.38,18.88-25.29,16.44-11.64-18.72.01-60.71,26.75-57.81Z"/><path class="cls-6" d="M1266.14,727.98c.43-9.05,9.24-30.87,20.55-27.7,19.54,5.48-9.61,29.73-20.55,27.7Z"/><path class="cls-2" d="M1564.12,170l.03,5.98c-8.98-2.74-9.13,6.49-16.11,8.92-19.78,6.88-43.33,8.35-63.89,18.1-7.27,3.45-12.77,11.63-22.01,10.97,2.83-5.16,9.06-8.19,13.97-11.01,13.76-7.91,45.67-22.5,60.58-27.42,3.03-1,26.47-6.54,27.44-5.54Z"/><path class="cls-2" d="M1610.13,214.01c-.55,3.19-3.82,3.76-6.4,4.58-13.49,4.32-27.81,8.06-41.6,11.38,12.45-11.12,31.21-17.5,48-15.96Z"/><path class="cls-4" d="M1454.12,202c3.37,3.23-12.25,11.4-13.98,9.98-3.47-2.84,12.14-10.03,13.98-9.98Z"/><path class="cls-4" d="M1510.13,174.01c-1.73,4.48-7.57,6.22-12,5.96,1.73-4.48,7.57-6.22,12-5.96Z"/><path class="cls-4" d="M1466.13,196.01c1.49,1.07-8.25,7.69-9.99,5.97-.55-6.16,5.03-6.46,9.99-5.97Z"/><rect class="cls-8" x="1480.14" y="256" width="5.98" height="3.98"/><path class="cls-4" d="M1437.13,211.99c1.3.67,1.3,1.33,0,2v-2Z"/><path class="cls-8" d="M1491.13,255.99c1.3.67,1.3,1.33,0,2v-2Z"/><path class="cls-7" d="M2182.13,1163.99c.21.66.17,3.16,0,4l-2,2c-4.63,11.47-11.58,20.32-15.58,29.49-1.02,2.35.39,6.76-.76,8.19-2.19,2.7-19.52,5.77-17.92,18.07l-11.75.26c.97-5.05-1.07-10.41-1.01-15.04.02-1.52,2.91-3.64,2.93-5.94.03-3.7-3.98-6.51-3.85-10.04.36-10.02,10.34-39.63,13.94-50.99,7.93-11.96,41.78,5.5,36,20Z"/><path class="cls-3" d="M2182.13,1163.99c-4.35-13.38-22.39-22.55-36-20,7.15-22.6,15.13-44.46,23.09-65.97,4.04-10.9,5.64,1.12,8.1,3.77,3.2,3.45,5.83,3.81,9.21,8.79,13.15,19.39,8.31,54.42-4.4,73.4Z"/><path class="cls-3" d="M2180.13,1169.99c.33-.82,1.27-1.48,2-2-.22,1.08-.95,1.74-2,2Z"/><path class="cls-7" d="M1714.13,1055.99c2.35,21.53-4.56,39.43-13.99,56.61-.7,1.27-3.15,1.42-4,2.8-2.25,3.65-6.14,16.78-9.32,18.76l-20.59,3.78c-3.52-6.62.31-12.26.09-18.95-.35-10.48-3.37-12.65-.19-25,.03-29.45,12.7-50.55,44.95-43.07l3.05,5.07Z"/><path class="cls-3" d="M1666.13,1093.99c-3.12-5.48-.59-16.48.28-22.71,1.52-10.76,3.11-22.95,7.33-32.72-4.08-6.11,7.75-44.46,10.71-46.22,2.14-1.27,6.87-.03,9.65-.33-.66,22.2,17.81,43.75,20.02,63.99-15.55-5.31-32.47-2.92-40.4,12.6-3.89,7.61-2.35,13.11-4.14,19.95-.6,2.3-3.15,4.21-3.46,5.45Z"/><rect class="cls-1" x="1666.14" y="1018" width="5.98" height="3.98"/></svg>